G04 EAGLE Gerber RS-274X export*
G75*
%MOMM*%
%FSLAX34Y34*%
%LPD*%
%INSilkscreen Top*%
%IPPOS*%
%AMOC8*
5,1,8,0,0,1.08239X$1,22.5*%
G01*
%ADD10C,0.127000*%
%ADD11C,0.101600*%
%ADD12C,0.010159*%
%ADD13R,0.200000X0.200000*%
%ADD14R,0.150000X0.250000*%
%ADD15C,0.203200*%
%ADD16C,0.152400*%


D10*
X40900Y92100D02*
X40900Y36100D01*
X40900Y22100D01*
X110900Y22100D01*
X110900Y36100D01*
X110900Y92100D01*
X40900Y92100D01*
X40900Y36100D02*
X110900Y36100D01*
D11*
X92628Y98504D02*
X92628Y107592D01*
X92627Y98504D02*
X92625Y98405D01*
X92619Y98305D01*
X92610Y98206D01*
X92597Y98108D01*
X92580Y98010D01*
X92559Y97912D01*
X92534Y97816D01*
X92506Y97721D01*
X92474Y97627D01*
X92439Y97534D01*
X92400Y97442D01*
X92357Y97352D01*
X92312Y97264D01*
X92262Y97177D01*
X92210Y97093D01*
X92154Y97010D01*
X92096Y96930D01*
X92034Y96852D01*
X91969Y96777D01*
X91901Y96704D01*
X91831Y96634D01*
X91758Y96566D01*
X91683Y96501D01*
X91605Y96439D01*
X91525Y96381D01*
X91442Y96325D01*
X91358Y96273D01*
X91271Y96223D01*
X91183Y96178D01*
X91093Y96135D01*
X91001Y96096D01*
X90908Y96061D01*
X90814Y96029D01*
X90719Y96001D01*
X90623Y95976D01*
X90525Y95955D01*
X90427Y95938D01*
X90329Y95925D01*
X90230Y95916D01*
X90130Y95910D01*
X90031Y95908D01*
X88733Y95908D01*
X97901Y104996D02*
X101146Y107592D01*
X101146Y95908D01*
X97901Y95908D02*
X104392Y95908D01*
D12*
X289097Y103255D02*
X289773Y103870D01*
X289889Y103747D01*
X290008Y103626D01*
X290131Y103509D01*
X290256Y103395D01*
X290383Y103284D01*
X290514Y103175D01*
X290647Y103071D01*
X290782Y102969D01*
X290920Y102871D01*
X291061Y102776D01*
X291203Y102684D01*
X291348Y102596D01*
X291495Y102512D01*
X291643Y102431D01*
X291794Y102353D01*
X291947Y102280D01*
X292101Y102210D01*
X292257Y102144D01*
X292415Y102082D01*
X292574Y102023D01*
X292734Y101969D01*
X292896Y101918D01*
X293059Y101871D01*
X293223Y101829D01*
X293387Y101790D01*
X293553Y101755D01*
X293720Y101725D01*
X293887Y101698D01*
X294055Y101675D01*
X294223Y101657D01*
X294392Y101643D01*
X294561Y101632D01*
X294731Y101626D01*
X294900Y101624D01*
X295069Y101626D01*
X295239Y101632D01*
X295408Y101643D01*
X295577Y101657D01*
X295745Y101675D01*
X295913Y101698D01*
X296080Y101725D01*
X296247Y101755D01*
X296413Y101790D01*
X296577Y101829D01*
X296741Y101871D01*
X296904Y101918D01*
X297066Y101969D01*
X297226Y102023D01*
X297385Y102082D01*
X297543Y102144D01*
X297699Y102210D01*
X297853Y102280D01*
X298006Y102353D01*
X298157Y102431D01*
X298305Y102512D01*
X298452Y102596D01*
X298597Y102684D01*
X298739Y102776D01*
X298880Y102871D01*
X299018Y102969D01*
X299153Y103071D01*
X299286Y103175D01*
X299417Y103284D01*
X299544Y103395D01*
X299669Y103509D01*
X299792Y103626D01*
X299911Y103747D01*
X300027Y103870D01*
X300703Y103255D01*
X300704Y103255D01*
X300572Y103115D01*
X300437Y102979D01*
X300299Y102846D01*
X300157Y102717D01*
X300013Y102591D01*
X299865Y102468D01*
X299715Y102349D01*
X299561Y102234D01*
X299405Y102123D01*
X299246Y102015D01*
X299085Y101911D01*
X298921Y101812D01*
X298755Y101716D01*
X298587Y101624D01*
X298416Y101537D01*
X298243Y101453D01*
X298069Y101374D01*
X297892Y101299D01*
X297714Y101229D01*
X297534Y101163D01*
X297352Y101101D01*
X297169Y101043D01*
X296985Y100990D01*
X296799Y100942D01*
X296612Y100898D01*
X296425Y100859D01*
X296236Y100824D01*
X296047Y100794D01*
X295857Y100768D01*
X295666Y100747D01*
X295475Y100731D01*
X295283Y100719D01*
X295092Y100712D01*
X294900Y100710D01*
X294708Y100712D01*
X294517Y100719D01*
X294325Y100731D01*
X294134Y100747D01*
X293943Y100768D01*
X293753Y100794D01*
X293564Y100824D01*
X293375Y100859D01*
X293188Y100898D01*
X293001Y100942D01*
X292815Y100990D01*
X292631Y101043D01*
X292448Y101101D01*
X292266Y101163D01*
X292086Y101229D01*
X291908Y101299D01*
X291731Y101374D01*
X291557Y101453D01*
X291384Y101537D01*
X291213Y101624D01*
X291045Y101716D01*
X290879Y101812D01*
X290715Y101911D01*
X290554Y102015D01*
X290395Y102123D01*
X290239Y102234D01*
X290085Y102349D01*
X289935Y102468D01*
X289787Y102591D01*
X289643Y102717D01*
X289501Y102846D01*
X289363Y102979D01*
X289228Y103115D01*
X289096Y103255D01*
X289167Y103320D01*
X289297Y103182D01*
X289431Y103047D01*
X289567Y102916D01*
X289707Y102788D01*
X289850Y102664D01*
X289996Y102543D01*
X290144Y102425D01*
X290296Y102311D01*
X290450Y102201D01*
X290607Y102095D01*
X290766Y101993D01*
X290928Y101894D01*
X291092Y101800D01*
X291259Y101709D01*
X291427Y101623D01*
X291598Y101540D01*
X291770Y101462D01*
X291945Y101388D01*
X292121Y101318D01*
X292299Y101253D01*
X292478Y101192D01*
X292659Y101135D01*
X292841Y101083D01*
X293024Y101035D01*
X293209Y100992D01*
X293394Y100953D01*
X293580Y100919D01*
X293767Y100889D01*
X293955Y100863D01*
X294143Y100843D01*
X294332Y100827D01*
X294521Y100815D01*
X294711Y100808D01*
X294900Y100806D01*
X295089Y100808D01*
X295279Y100815D01*
X295468Y100827D01*
X295657Y100843D01*
X295845Y100863D01*
X296033Y100889D01*
X296220Y100919D01*
X296406Y100953D01*
X296591Y100992D01*
X296776Y101035D01*
X296959Y101083D01*
X297141Y101135D01*
X297322Y101192D01*
X297501Y101253D01*
X297679Y101318D01*
X297855Y101388D01*
X298030Y101462D01*
X298202Y101540D01*
X298373Y101623D01*
X298541Y101709D01*
X298708Y101800D01*
X298872Y101894D01*
X299034Y101993D01*
X299193Y102095D01*
X299350Y102201D01*
X299504Y102311D01*
X299656Y102425D01*
X299804Y102543D01*
X299950Y102664D01*
X300093Y102788D01*
X300233Y102916D01*
X300369Y103047D01*
X300503Y103182D01*
X300633Y103320D01*
X300562Y103384D01*
X300433Y103248D01*
X300302Y103115D01*
X300167Y102986D01*
X300029Y102859D01*
X299888Y102736D01*
X299744Y102617D01*
X299597Y102501D01*
X299447Y102389D01*
X299295Y102280D01*
X299140Y102175D01*
X298983Y102074D01*
X298823Y101976D01*
X298661Y101883D01*
X298496Y101794D01*
X298330Y101708D01*
X298161Y101627D01*
X297991Y101550D01*
X297819Y101477D01*
X297645Y101408D01*
X297469Y101343D01*
X297292Y101283D01*
X297113Y101227D01*
X296934Y101175D01*
X296753Y101128D01*
X296570Y101085D01*
X296387Y101047D01*
X296203Y101013D01*
X296019Y100984D01*
X295833Y100959D01*
X295647Y100938D01*
X295461Y100922D01*
X295274Y100911D01*
X295087Y100904D01*
X294900Y100902D01*
X294713Y100904D01*
X294526Y100911D01*
X294339Y100922D01*
X294153Y100938D01*
X293967Y100959D01*
X293781Y100984D01*
X293597Y101013D01*
X293413Y101047D01*
X293230Y101085D01*
X293047Y101128D01*
X292866Y101175D01*
X292687Y101227D01*
X292508Y101283D01*
X292331Y101343D01*
X292155Y101408D01*
X291981Y101477D01*
X291809Y101550D01*
X291639Y101627D01*
X291470Y101708D01*
X291304Y101794D01*
X291139Y101883D01*
X290977Y101976D01*
X290817Y102074D01*
X290660Y102175D01*
X290505Y102280D01*
X290353Y102389D01*
X290203Y102501D01*
X290056Y102617D01*
X289912Y102736D01*
X289771Y102859D01*
X289633Y102986D01*
X289498Y103115D01*
X289367Y103248D01*
X289238Y103384D01*
X289309Y103449D01*
X289436Y103314D01*
X289566Y103183D01*
X289699Y103055D01*
X289836Y102930D01*
X289975Y102809D01*
X290117Y102691D01*
X290262Y102577D01*
X290410Y102466D01*
X290560Y102358D01*
X290713Y102255D01*
X290869Y102155D01*
X291026Y102059D01*
X291187Y101967D01*
X291349Y101878D01*
X291513Y101794D01*
X291680Y101714D01*
X291848Y101638D01*
X292018Y101565D01*
X292190Y101498D01*
X292363Y101434D01*
X292538Y101374D01*
X292714Y101319D01*
X292892Y101268D01*
X293071Y101221D01*
X293251Y101179D01*
X293431Y101141D01*
X293613Y101108D01*
X293795Y101079D01*
X293979Y101054D01*
X294162Y101034D01*
X294346Y101018D01*
X294531Y101007D01*
X294715Y101000D01*
X294900Y100998D01*
X295085Y101000D01*
X295269Y101007D01*
X295454Y101018D01*
X295638Y101034D01*
X295821Y101054D01*
X296005Y101079D01*
X296187Y101108D01*
X296369Y101141D01*
X296549Y101179D01*
X296729Y101221D01*
X296908Y101268D01*
X297086Y101319D01*
X297262Y101374D01*
X297437Y101434D01*
X297610Y101498D01*
X297782Y101565D01*
X297952Y101638D01*
X298120Y101714D01*
X298287Y101794D01*
X298451Y101878D01*
X298613Y101967D01*
X298774Y102059D01*
X298931Y102155D01*
X299087Y102255D01*
X299240Y102358D01*
X299390Y102466D01*
X299538Y102577D01*
X299683Y102691D01*
X299825Y102809D01*
X299964Y102930D01*
X300101Y103055D01*
X300234Y103183D01*
X300364Y103314D01*
X300491Y103449D01*
X300420Y103513D01*
X300294Y103381D01*
X300166Y103251D01*
X300034Y103125D01*
X299900Y103002D01*
X299762Y102882D01*
X299622Y102765D01*
X299479Y102652D01*
X299333Y102543D01*
X299184Y102437D01*
X299033Y102335D01*
X298880Y102236D01*
X298724Y102141D01*
X298566Y102050D01*
X298406Y101963D01*
X298244Y101880D01*
X298079Y101801D01*
X297913Y101725D01*
X297745Y101654D01*
X297576Y101587D01*
X297405Y101524D01*
X297232Y101465D01*
X297058Y101411D01*
X296883Y101361D01*
X296706Y101315D01*
X296528Y101273D01*
X296350Y101235D01*
X296171Y101202D01*
X295990Y101174D01*
X295810Y101149D01*
X295628Y101129D01*
X295447Y101114D01*
X295265Y101103D01*
X295082Y101096D01*
X294900Y101094D01*
X294718Y101096D01*
X294535Y101103D01*
X294353Y101114D01*
X294172Y101129D01*
X293990Y101149D01*
X293810Y101174D01*
X293629Y101202D01*
X293450Y101235D01*
X293272Y101273D01*
X293094Y101315D01*
X292917Y101361D01*
X292742Y101411D01*
X292568Y101465D01*
X292395Y101524D01*
X292224Y101587D01*
X292055Y101654D01*
X291887Y101725D01*
X291721Y101801D01*
X291556Y101880D01*
X291394Y101963D01*
X291234Y102050D01*
X291076Y102141D01*
X290920Y102236D01*
X290767Y102335D01*
X290616Y102437D01*
X290467Y102543D01*
X290321Y102652D01*
X290178Y102765D01*
X290038Y102882D01*
X289900Y103002D01*
X289766Y103125D01*
X289634Y103251D01*
X289506Y103381D01*
X289380Y103513D01*
X289451Y103578D01*
X289575Y103447D01*
X289702Y103319D01*
X289832Y103194D01*
X289965Y103073D01*
X290100Y102955D01*
X290239Y102840D01*
X290380Y102728D01*
X290524Y102620D01*
X290671Y102515D01*
X290820Y102415D01*
X290971Y102317D01*
X291125Y102224D01*
X291281Y102134D01*
X291439Y102048D01*
X291599Y101966D01*
X291762Y101887D01*
X291926Y101813D01*
X292091Y101743D01*
X292259Y101677D01*
X292428Y101615D01*
X292598Y101557D01*
X292770Y101503D01*
X292943Y101453D01*
X293117Y101408D01*
X293293Y101366D01*
X293469Y101330D01*
X293646Y101297D01*
X293824Y101269D01*
X294002Y101245D01*
X294181Y101225D01*
X294360Y101210D01*
X294540Y101199D01*
X294720Y101192D01*
X294900Y101190D01*
X295080Y101192D01*
X295260Y101199D01*
X295440Y101210D01*
X295619Y101225D01*
X295798Y101245D01*
X295976Y101269D01*
X296154Y101297D01*
X296331Y101330D01*
X296507Y101366D01*
X296683Y101408D01*
X296857Y101453D01*
X297030Y101503D01*
X297202Y101557D01*
X297372Y101615D01*
X297541Y101677D01*
X297709Y101743D01*
X297874Y101813D01*
X298038Y101887D01*
X298201Y101966D01*
X298361Y102048D01*
X298519Y102134D01*
X298675Y102224D01*
X298829Y102317D01*
X298980Y102415D01*
X299129Y102515D01*
X299276Y102620D01*
X299420Y102728D01*
X299561Y102840D01*
X299700Y102955D01*
X299835Y103073D01*
X299968Y103194D01*
X300098Y103319D01*
X300225Y103447D01*
X300349Y103578D01*
X300277Y103642D01*
X300155Y103513D01*
X300030Y103387D01*
X299902Y103264D01*
X299771Y103144D01*
X299637Y103027D01*
X299500Y102914D01*
X299361Y102804D01*
X299219Y102697D01*
X299074Y102594D01*
X298927Y102494D01*
X298777Y102398D01*
X298626Y102306D01*
X298472Y102217D01*
X298316Y102133D01*
X298157Y102051D01*
X297997Y101974D01*
X297836Y101901D01*
X297672Y101832D01*
X297507Y101766D01*
X297340Y101705D01*
X297172Y101648D01*
X297002Y101595D01*
X296831Y101546D01*
X296659Y101501D01*
X296486Y101460D01*
X296313Y101424D01*
X296138Y101392D01*
X295962Y101364D01*
X295786Y101340D01*
X295610Y101321D01*
X295433Y101305D01*
X295255Y101295D01*
X295078Y101288D01*
X294900Y101286D01*
X294722Y101288D01*
X294545Y101295D01*
X294367Y101305D01*
X294190Y101321D01*
X294014Y101340D01*
X293838Y101364D01*
X293662Y101392D01*
X293487Y101424D01*
X293314Y101460D01*
X293141Y101501D01*
X292969Y101546D01*
X292798Y101595D01*
X292628Y101648D01*
X292460Y101705D01*
X292293Y101766D01*
X292128Y101832D01*
X291964Y101901D01*
X291803Y101974D01*
X291643Y102051D01*
X291484Y102133D01*
X291328Y102217D01*
X291174Y102306D01*
X291023Y102398D01*
X290873Y102494D01*
X290726Y102594D01*
X290581Y102697D01*
X290439Y102804D01*
X290300Y102914D01*
X290163Y103027D01*
X290029Y103144D01*
X289898Y103264D01*
X289770Y103387D01*
X289645Y103513D01*
X289523Y103642D01*
X289594Y103707D01*
X289714Y103580D01*
X289837Y103455D01*
X289964Y103334D01*
X290093Y103215D01*
X290225Y103100D01*
X290360Y102988D01*
X290498Y102880D01*
X290638Y102774D01*
X290781Y102673D01*
X290926Y102574D01*
X291074Y102480D01*
X291224Y102388D01*
X291376Y102301D01*
X291530Y102217D01*
X291686Y102137D01*
X291844Y102061D01*
X292003Y101989D01*
X292165Y101920D01*
X292328Y101856D01*
X292492Y101795D01*
X292658Y101739D01*
X292826Y101686D01*
X292994Y101638D01*
X293164Y101594D01*
X293335Y101554D01*
X293506Y101518D01*
X293679Y101486D01*
X293852Y101459D01*
X294025Y101435D01*
X294200Y101416D01*
X294374Y101401D01*
X294549Y101391D01*
X294725Y101384D01*
X294900Y101382D01*
X295075Y101384D01*
X295251Y101391D01*
X295426Y101401D01*
X295600Y101416D01*
X295775Y101435D01*
X295948Y101459D01*
X296121Y101486D01*
X296294Y101518D01*
X296465Y101554D01*
X296636Y101594D01*
X296806Y101638D01*
X296974Y101686D01*
X297142Y101739D01*
X297308Y101795D01*
X297472Y101856D01*
X297635Y101920D01*
X297797Y101989D01*
X297956Y102061D01*
X298114Y102137D01*
X298270Y102217D01*
X298424Y102301D01*
X298576Y102388D01*
X298726Y102480D01*
X298874Y102574D01*
X299019Y102673D01*
X299162Y102774D01*
X299302Y102880D01*
X299440Y102988D01*
X299575Y103100D01*
X299707Y103215D01*
X299836Y103334D01*
X299963Y103455D01*
X300086Y103580D01*
X300206Y103707D01*
X300135Y103772D01*
X300017Y103646D01*
X299895Y103523D01*
X299770Y103403D01*
X299642Y103287D01*
X299512Y103173D01*
X299379Y103063D01*
X299243Y102955D01*
X299105Y102852D01*
X298964Y102751D01*
X298820Y102654D01*
X298675Y102561D01*
X298527Y102471D01*
X298377Y102385D01*
X298225Y102302D01*
X298071Y102223D01*
X297915Y102148D01*
X297758Y102077D01*
X297599Y102009D01*
X297438Y101945D01*
X297275Y101886D01*
X297112Y101830D01*
X296947Y101778D01*
X296780Y101731D01*
X296613Y101687D01*
X296444Y101647D01*
X296275Y101612D01*
X296105Y101581D01*
X295934Y101553D01*
X295763Y101530D01*
X295591Y101512D01*
X295418Y101497D01*
X295246Y101486D01*
X295073Y101480D01*
X294900Y101478D01*
X294727Y101480D01*
X294554Y101486D01*
X294382Y101497D01*
X294209Y101512D01*
X294037Y101530D01*
X293866Y101553D01*
X293695Y101581D01*
X293525Y101612D01*
X293356Y101647D01*
X293187Y101687D01*
X293020Y101731D01*
X292853Y101778D01*
X292688Y101830D01*
X292525Y101886D01*
X292362Y101945D01*
X292201Y102009D01*
X292042Y102077D01*
X291885Y102148D01*
X291729Y102223D01*
X291575Y102302D01*
X291423Y102385D01*
X291273Y102471D01*
X291125Y102561D01*
X290980Y102654D01*
X290836Y102751D01*
X290695Y102852D01*
X290557Y102955D01*
X290421Y103063D01*
X290288Y103173D01*
X290158Y103287D01*
X290030Y103403D01*
X289905Y103523D01*
X289783Y103646D01*
X289665Y103772D01*
X289736Y103836D01*
X289853Y103712D01*
X289973Y103591D01*
X290096Y103473D01*
X290222Y103358D01*
X290351Y103246D01*
X290482Y103137D01*
X290616Y103031D01*
X290753Y102929D01*
X290891Y102830D01*
X291033Y102734D01*
X291176Y102642D01*
X291322Y102553D01*
X291470Y102468D01*
X291620Y102387D01*
X291772Y102309D01*
X291925Y102235D01*
X292081Y102164D01*
X292238Y102098D01*
X292397Y102035D01*
X292557Y101976D01*
X292718Y101921D01*
X292881Y101870D01*
X293045Y101823D01*
X293210Y101780D01*
X293377Y101741D01*
X293544Y101706D01*
X293711Y101675D01*
X293880Y101648D01*
X294049Y101626D01*
X294219Y101607D01*
X294389Y101593D01*
X294559Y101582D01*
X294729Y101576D01*
X294900Y101574D01*
X295071Y101576D01*
X295241Y101582D01*
X295411Y101593D01*
X295581Y101607D01*
X295751Y101626D01*
X295920Y101648D01*
X296089Y101675D01*
X296256Y101706D01*
X296423Y101741D01*
X296590Y101780D01*
X296755Y101823D01*
X296919Y101870D01*
X297082Y101921D01*
X297243Y101976D01*
X297403Y102035D01*
X297562Y102098D01*
X297719Y102164D01*
X297875Y102235D01*
X298028Y102309D01*
X298180Y102387D01*
X298330Y102468D01*
X298478Y102553D01*
X298624Y102642D01*
X298767Y102734D01*
X298909Y102830D01*
X299047Y102929D01*
X299184Y103031D01*
X299318Y103137D01*
X299449Y103246D01*
X299578Y103358D01*
X299704Y103473D01*
X299827Y103591D01*
X299947Y103712D01*
X300064Y103836D01*
X300703Y113945D02*
X300027Y113330D01*
X299911Y113453D01*
X299792Y113574D01*
X299669Y113691D01*
X299544Y113805D01*
X299417Y113916D01*
X299286Y114025D01*
X299153Y114129D01*
X299018Y114231D01*
X298880Y114329D01*
X298739Y114424D01*
X298597Y114516D01*
X298452Y114604D01*
X298305Y114688D01*
X298157Y114769D01*
X298006Y114847D01*
X297853Y114920D01*
X297699Y114990D01*
X297543Y115056D01*
X297385Y115118D01*
X297226Y115177D01*
X297066Y115231D01*
X296904Y115282D01*
X296741Y115329D01*
X296577Y115371D01*
X296413Y115410D01*
X296247Y115445D01*
X296080Y115475D01*
X295913Y115502D01*
X295745Y115525D01*
X295577Y115543D01*
X295408Y115557D01*
X295239Y115568D01*
X295069Y115574D01*
X294900Y115576D01*
X294731Y115574D01*
X294561Y115568D01*
X294392Y115557D01*
X294223Y115543D01*
X294055Y115525D01*
X293887Y115502D01*
X293720Y115475D01*
X293553Y115445D01*
X293387Y115410D01*
X293223Y115371D01*
X293059Y115329D01*
X292896Y115282D01*
X292734Y115231D01*
X292574Y115177D01*
X292415Y115118D01*
X292257Y115056D01*
X292101Y114990D01*
X291947Y114920D01*
X291794Y114847D01*
X291643Y114769D01*
X291495Y114688D01*
X291348Y114604D01*
X291203Y114516D01*
X291061Y114424D01*
X290920Y114329D01*
X290782Y114231D01*
X290647Y114129D01*
X290514Y114025D01*
X290383Y113916D01*
X290256Y113805D01*
X290131Y113691D01*
X290008Y113574D01*
X289889Y113453D01*
X289773Y113330D01*
X289097Y113945D01*
X289096Y113945D01*
X289228Y114085D01*
X289363Y114221D01*
X289501Y114354D01*
X289643Y114483D01*
X289787Y114609D01*
X289935Y114732D01*
X290085Y114851D01*
X290239Y114966D01*
X290395Y115077D01*
X290554Y115185D01*
X290715Y115289D01*
X290879Y115388D01*
X291045Y115484D01*
X291213Y115576D01*
X291384Y115663D01*
X291557Y115747D01*
X291731Y115826D01*
X291908Y115901D01*
X292086Y115971D01*
X292266Y116037D01*
X292448Y116099D01*
X292631Y116157D01*
X292815Y116210D01*
X293001Y116258D01*
X293188Y116302D01*
X293375Y116341D01*
X293564Y116376D01*
X293753Y116406D01*
X293943Y116432D01*
X294134Y116453D01*
X294325Y116469D01*
X294517Y116481D01*
X294708Y116488D01*
X294900Y116490D01*
X295092Y116488D01*
X295283Y116481D01*
X295475Y116469D01*
X295666Y116453D01*
X295857Y116432D01*
X296047Y116406D01*
X296236Y116376D01*
X296425Y116341D01*
X296612Y116302D01*
X296799Y116258D01*
X296985Y116210D01*
X297169Y116157D01*
X297352Y116099D01*
X297534Y116037D01*
X297714Y115971D01*
X297892Y115901D01*
X298069Y115826D01*
X298243Y115747D01*
X298416Y115663D01*
X298587Y115576D01*
X298755Y115484D01*
X298921Y115388D01*
X299085Y115289D01*
X299246Y115185D01*
X299405Y115077D01*
X299561Y114966D01*
X299715Y114851D01*
X299865Y114732D01*
X300013Y114609D01*
X300157Y114483D01*
X300299Y114354D01*
X300437Y114221D01*
X300572Y114085D01*
X300704Y113945D01*
X300633Y113880D01*
X300503Y114018D01*
X300369Y114153D01*
X300233Y114284D01*
X300093Y114412D01*
X299950Y114536D01*
X299804Y114657D01*
X299656Y114775D01*
X299504Y114889D01*
X299350Y114999D01*
X299193Y115105D01*
X299034Y115207D01*
X298872Y115306D01*
X298708Y115400D01*
X298541Y115491D01*
X298373Y115577D01*
X298202Y115660D01*
X298030Y115738D01*
X297855Y115812D01*
X297679Y115882D01*
X297501Y115947D01*
X297322Y116008D01*
X297141Y116065D01*
X296959Y116117D01*
X296776Y116165D01*
X296591Y116208D01*
X296406Y116247D01*
X296220Y116281D01*
X296033Y116311D01*
X295845Y116337D01*
X295657Y116357D01*
X295468Y116373D01*
X295279Y116385D01*
X295089Y116392D01*
X294900Y116394D01*
X294711Y116392D01*
X294521Y116385D01*
X294332Y116373D01*
X294143Y116357D01*
X293955Y116337D01*
X293767Y116311D01*
X293580Y116281D01*
X293394Y116247D01*
X293209Y116208D01*
X293024Y116165D01*
X292841Y116117D01*
X292659Y116065D01*
X292478Y116008D01*
X292299Y115947D01*
X292121Y115882D01*
X291945Y115812D01*
X291770Y115738D01*
X291598Y115660D01*
X291427Y115577D01*
X291259Y115491D01*
X291092Y115400D01*
X290928Y115306D01*
X290766Y115207D01*
X290607Y115105D01*
X290450Y114999D01*
X290296Y114889D01*
X290144Y114775D01*
X289996Y114657D01*
X289850Y114536D01*
X289707Y114412D01*
X289567Y114284D01*
X289431Y114153D01*
X289297Y114018D01*
X289167Y113880D01*
X289238Y113816D01*
X289367Y113952D01*
X289498Y114085D01*
X289633Y114214D01*
X289771Y114341D01*
X289912Y114464D01*
X290056Y114583D01*
X290203Y114699D01*
X290353Y114811D01*
X290505Y114920D01*
X290660Y115025D01*
X290817Y115126D01*
X290977Y115224D01*
X291139Y115317D01*
X291304Y115406D01*
X291470Y115492D01*
X291639Y115573D01*
X291809Y115650D01*
X291981Y115723D01*
X292155Y115792D01*
X292331Y115857D01*
X292508Y115917D01*
X292687Y115973D01*
X292866Y116025D01*
X293047Y116072D01*
X293230Y116115D01*
X293413Y116153D01*
X293597Y116187D01*
X293781Y116216D01*
X293967Y116241D01*
X294153Y116262D01*
X294339Y116278D01*
X294526Y116289D01*
X294713Y116296D01*
X294900Y116298D01*
X295087Y116296D01*
X295274Y116289D01*
X295461Y116278D01*
X295647Y116262D01*
X295833Y116241D01*
X296019Y116216D01*
X296203Y116187D01*
X296387Y116153D01*
X296570Y116115D01*
X296753Y116072D01*
X296934Y116025D01*
X297113Y115973D01*
X297292Y115917D01*
X297469Y115857D01*
X297645Y115792D01*
X297819Y115723D01*
X297991Y115650D01*
X298161Y115573D01*
X298330Y115492D01*
X298496Y115406D01*
X298661Y115317D01*
X298823Y115224D01*
X298983Y115126D01*
X299140Y115025D01*
X299295Y114920D01*
X299447Y114811D01*
X299597Y114699D01*
X299744Y114583D01*
X299888Y114464D01*
X300029Y114341D01*
X300167Y114214D01*
X300302Y114085D01*
X300433Y113952D01*
X300562Y113816D01*
X300491Y113751D01*
X300364Y113886D01*
X300234Y114017D01*
X300101Y114145D01*
X299964Y114270D01*
X299825Y114391D01*
X299683Y114509D01*
X299538Y114623D01*
X299390Y114734D01*
X299240Y114842D01*
X299087Y114945D01*
X298931Y115045D01*
X298774Y115141D01*
X298613Y115233D01*
X298451Y115322D01*
X298287Y115406D01*
X298120Y115486D01*
X297952Y115562D01*
X297782Y115635D01*
X297610Y115702D01*
X297437Y115766D01*
X297262Y115826D01*
X297086Y115881D01*
X296908Y115932D01*
X296729Y115979D01*
X296549Y116021D01*
X296369Y116059D01*
X296187Y116092D01*
X296005Y116121D01*
X295821Y116146D01*
X295638Y116166D01*
X295454Y116182D01*
X295269Y116193D01*
X295085Y116200D01*
X294900Y116202D01*
X294715Y116200D01*
X294531Y116193D01*
X294346Y116182D01*
X294162Y116166D01*
X293979Y116146D01*
X293795Y116121D01*
X293613Y116092D01*
X293431Y116059D01*
X293251Y116021D01*
X293071Y115979D01*
X292892Y115932D01*
X292714Y115881D01*
X292538Y115826D01*
X292363Y115766D01*
X292190Y115702D01*
X292018Y115635D01*
X291848Y115562D01*
X291680Y115486D01*
X291513Y115406D01*
X291349Y115322D01*
X291187Y115233D01*
X291026Y115141D01*
X290869Y115045D01*
X290713Y114945D01*
X290560Y114842D01*
X290410Y114734D01*
X290262Y114623D01*
X290117Y114509D01*
X289975Y114391D01*
X289836Y114270D01*
X289699Y114145D01*
X289566Y114017D01*
X289436Y113886D01*
X289309Y113751D01*
X289380Y113687D01*
X289506Y113819D01*
X289634Y113949D01*
X289766Y114075D01*
X289900Y114198D01*
X290038Y114318D01*
X290178Y114435D01*
X290321Y114548D01*
X290467Y114657D01*
X290616Y114763D01*
X290767Y114865D01*
X290920Y114964D01*
X291076Y115059D01*
X291234Y115150D01*
X291394Y115237D01*
X291556Y115320D01*
X291721Y115399D01*
X291887Y115475D01*
X292055Y115546D01*
X292224Y115613D01*
X292395Y115676D01*
X292568Y115735D01*
X292742Y115789D01*
X292917Y115839D01*
X293094Y115885D01*
X293272Y115927D01*
X293450Y115965D01*
X293629Y115998D01*
X293810Y116026D01*
X293990Y116051D01*
X294172Y116071D01*
X294353Y116086D01*
X294535Y116097D01*
X294718Y116104D01*
X294900Y116106D01*
X295082Y116104D01*
X295265Y116097D01*
X295447Y116086D01*
X295628Y116071D01*
X295810Y116051D01*
X295990Y116026D01*
X296171Y115998D01*
X296350Y115965D01*
X296528Y115927D01*
X296706Y115885D01*
X296883Y115839D01*
X297058Y115789D01*
X297232Y115735D01*
X297405Y115676D01*
X297576Y115613D01*
X297745Y115546D01*
X297913Y115475D01*
X298079Y115399D01*
X298244Y115320D01*
X298406Y115237D01*
X298566Y115150D01*
X298724Y115059D01*
X298880Y114964D01*
X299033Y114865D01*
X299184Y114763D01*
X299333Y114657D01*
X299479Y114548D01*
X299622Y114435D01*
X299762Y114318D01*
X299900Y114198D01*
X300034Y114075D01*
X300166Y113949D01*
X300294Y113819D01*
X300420Y113687D01*
X300349Y113622D01*
X300225Y113753D01*
X300098Y113881D01*
X299968Y114006D01*
X299835Y114127D01*
X299700Y114245D01*
X299561Y114360D01*
X299420Y114472D01*
X299276Y114580D01*
X299129Y114685D01*
X298980Y114785D01*
X298829Y114883D01*
X298675Y114976D01*
X298519Y115066D01*
X298361Y115152D01*
X298201Y115234D01*
X298038Y115313D01*
X297874Y115387D01*
X297709Y115457D01*
X297541Y115523D01*
X297372Y115585D01*
X297202Y115643D01*
X297030Y115697D01*
X296857Y115747D01*
X296683Y115792D01*
X296507Y115834D01*
X296331Y115870D01*
X296154Y115903D01*
X295976Y115931D01*
X295798Y115955D01*
X295619Y115975D01*
X295440Y115990D01*
X295260Y116001D01*
X295080Y116008D01*
X294900Y116010D01*
X294720Y116008D01*
X294540Y116001D01*
X294360Y115990D01*
X294181Y115975D01*
X294002Y115955D01*
X293824Y115931D01*
X293646Y115903D01*
X293469Y115870D01*
X293293Y115834D01*
X293117Y115792D01*
X292943Y115747D01*
X292770Y115697D01*
X292598Y115643D01*
X292428Y115585D01*
X292259Y115523D01*
X292091Y115457D01*
X291926Y115387D01*
X291762Y115313D01*
X291599Y115234D01*
X291439Y115152D01*
X291281Y115066D01*
X291125Y114976D01*
X290971Y114883D01*
X290820Y114785D01*
X290671Y114685D01*
X290524Y114580D01*
X290380Y114472D01*
X290239Y114360D01*
X290100Y114245D01*
X289965Y114127D01*
X289832Y114006D01*
X289702Y113881D01*
X289575Y113753D01*
X289451Y113622D01*
X289523Y113558D01*
X289645Y113687D01*
X289770Y113813D01*
X289898Y113936D01*
X290029Y114056D01*
X290163Y114173D01*
X290300Y114286D01*
X290439Y114396D01*
X290581Y114503D01*
X290726Y114606D01*
X290873Y114706D01*
X291023Y114802D01*
X291174Y114894D01*
X291328Y114983D01*
X291484Y115067D01*
X291643Y115149D01*
X291803Y115226D01*
X291964Y115299D01*
X292128Y115368D01*
X292293Y115434D01*
X292460Y115495D01*
X292628Y115552D01*
X292798Y115605D01*
X292969Y115654D01*
X293141Y115699D01*
X293314Y115740D01*
X293487Y115776D01*
X293662Y115808D01*
X293838Y115836D01*
X294014Y115860D01*
X294190Y115879D01*
X294367Y115895D01*
X294545Y115905D01*
X294722Y115912D01*
X294900Y115914D01*
X295078Y115912D01*
X295255Y115905D01*
X295433Y115895D01*
X295610Y115879D01*
X295786Y115860D01*
X295962Y115836D01*
X296138Y115808D01*
X296313Y115776D01*
X296486Y115740D01*
X296659Y115699D01*
X296831Y115654D01*
X297002Y115605D01*
X297172Y115552D01*
X297340Y115495D01*
X297507Y115434D01*
X297672Y115368D01*
X297836Y115299D01*
X297997Y115226D01*
X298157Y115149D01*
X298316Y115067D01*
X298472Y114983D01*
X298626Y114894D01*
X298777Y114802D01*
X298927Y114706D01*
X299074Y114606D01*
X299219Y114503D01*
X299361Y114396D01*
X299500Y114286D01*
X299637Y114173D01*
X299771Y114056D01*
X299902Y113936D01*
X300030Y113813D01*
X300155Y113687D01*
X300277Y113558D01*
X300206Y113493D01*
X300086Y113620D01*
X299963Y113745D01*
X299836Y113866D01*
X299707Y113985D01*
X299575Y114100D01*
X299440Y114212D01*
X299302Y114320D01*
X299162Y114426D01*
X299019Y114527D01*
X298874Y114626D01*
X298726Y114720D01*
X298576Y114812D01*
X298424Y114899D01*
X298270Y114983D01*
X298114Y115063D01*
X297956Y115139D01*
X297797Y115211D01*
X297635Y115280D01*
X297472Y115344D01*
X297308Y115405D01*
X297142Y115461D01*
X296974Y115514D01*
X296806Y115562D01*
X296636Y115606D01*
X296465Y115646D01*
X296294Y115682D01*
X296121Y115714D01*
X295948Y115741D01*
X295775Y115765D01*
X295600Y115784D01*
X295426Y115799D01*
X295251Y115809D01*
X295075Y115816D01*
X294900Y115818D01*
X294725Y115816D01*
X294549Y115809D01*
X294374Y115799D01*
X294200Y115784D01*
X294025Y115765D01*
X293852Y115741D01*
X293679Y115714D01*
X293506Y115682D01*
X293335Y115646D01*
X293164Y115606D01*
X292994Y115562D01*
X292826Y115514D01*
X292658Y115461D01*
X292492Y115405D01*
X292328Y115344D01*
X292165Y115280D01*
X292003Y115211D01*
X291844Y115139D01*
X291686Y115063D01*
X291530Y114983D01*
X291376Y114899D01*
X291224Y114812D01*
X291074Y114720D01*
X290926Y114626D01*
X290781Y114527D01*
X290638Y114426D01*
X290498Y114320D01*
X290360Y114212D01*
X290225Y114100D01*
X290093Y113985D01*
X289964Y113866D01*
X289837Y113745D01*
X289714Y113620D01*
X289594Y113493D01*
X289665Y113428D01*
X289783Y113554D01*
X289905Y113677D01*
X290030Y113797D01*
X290158Y113913D01*
X290288Y114027D01*
X290421Y114137D01*
X290557Y114245D01*
X290695Y114348D01*
X290836Y114449D01*
X290980Y114546D01*
X291125Y114639D01*
X291273Y114729D01*
X291423Y114815D01*
X291575Y114898D01*
X291729Y114977D01*
X291885Y115052D01*
X292042Y115123D01*
X292201Y115191D01*
X292362Y115255D01*
X292525Y115314D01*
X292688Y115370D01*
X292853Y115422D01*
X293020Y115469D01*
X293187Y115513D01*
X293356Y115553D01*
X293525Y115588D01*
X293695Y115619D01*
X293866Y115647D01*
X294037Y115670D01*
X294209Y115688D01*
X294382Y115703D01*
X294554Y115714D01*
X294727Y115720D01*
X294900Y115722D01*
X295073Y115720D01*
X295246Y115714D01*
X295418Y115703D01*
X295591Y115688D01*
X295763Y115670D01*
X295934Y115647D01*
X296105Y115619D01*
X296275Y115588D01*
X296444Y115553D01*
X296613Y115513D01*
X296780Y115469D01*
X296947Y115422D01*
X297112Y115370D01*
X297275Y115314D01*
X297438Y115255D01*
X297599Y115191D01*
X297758Y115123D01*
X297915Y115052D01*
X298071Y114977D01*
X298225Y114898D01*
X298377Y114815D01*
X298527Y114729D01*
X298675Y114639D01*
X298820Y114546D01*
X298964Y114449D01*
X299105Y114348D01*
X299243Y114245D01*
X299379Y114137D01*
X299512Y114027D01*
X299642Y113913D01*
X299770Y113797D01*
X299895Y113677D01*
X300017Y113554D01*
X300135Y113428D01*
X300064Y113364D01*
X299947Y113488D01*
X299827Y113609D01*
X299704Y113727D01*
X299578Y113842D01*
X299449Y113954D01*
X299318Y114063D01*
X299184Y114169D01*
X299047Y114271D01*
X298909Y114370D01*
X298767Y114466D01*
X298624Y114558D01*
X298478Y114647D01*
X298330Y114732D01*
X298180Y114813D01*
X298028Y114891D01*
X297875Y114965D01*
X297719Y115036D01*
X297562Y115102D01*
X297403Y115165D01*
X297243Y115224D01*
X297082Y115279D01*
X296919Y115330D01*
X296755Y115377D01*
X296590Y115420D01*
X296423Y115459D01*
X296256Y115494D01*
X296089Y115525D01*
X295920Y115552D01*
X295751Y115574D01*
X295581Y115593D01*
X295411Y115607D01*
X295241Y115618D01*
X295071Y115624D01*
X294900Y115626D01*
X294729Y115624D01*
X294559Y115618D01*
X294389Y115607D01*
X294219Y115593D01*
X294049Y115574D01*
X293880Y115552D01*
X293711Y115525D01*
X293544Y115494D01*
X293377Y115459D01*
X293210Y115420D01*
X293045Y115377D01*
X292881Y115330D01*
X292718Y115279D01*
X292557Y115224D01*
X292397Y115165D01*
X292238Y115102D01*
X292081Y115036D01*
X291925Y114965D01*
X291772Y114891D01*
X291620Y114813D01*
X291470Y114732D01*
X291322Y114647D01*
X291176Y114558D01*
X291033Y114466D01*
X290891Y114370D01*
X290753Y114271D01*
X290616Y114169D01*
X290482Y114063D01*
X290351Y113954D01*
X290222Y113842D01*
X290096Y113727D01*
X289973Y113609D01*
X289853Y113488D01*
X289736Y113364D01*
D13*
X294900Y108600D03*
D14*
X300150Y102850D03*
D11*
X282708Y121808D02*
X282708Y133492D01*
X282708Y121808D02*
X287901Y121808D01*
X292614Y121808D02*
X297807Y121808D01*
X292614Y121808D02*
X292614Y133492D01*
X297807Y133492D01*
X296509Y128299D02*
X292614Y128299D01*
X302497Y133492D02*
X302497Y121808D01*
X302497Y133492D02*
X305743Y133492D01*
X305856Y133490D01*
X305969Y133484D01*
X306082Y133474D01*
X306195Y133460D01*
X306307Y133443D01*
X306418Y133421D01*
X306528Y133396D01*
X306638Y133366D01*
X306746Y133333D01*
X306853Y133296D01*
X306959Y133256D01*
X307063Y133211D01*
X307166Y133163D01*
X307267Y133112D01*
X307366Y133057D01*
X307463Y132999D01*
X307558Y132937D01*
X307651Y132872D01*
X307741Y132804D01*
X307829Y132733D01*
X307915Y132658D01*
X307998Y132581D01*
X308078Y132501D01*
X308155Y132418D01*
X308230Y132332D01*
X308301Y132244D01*
X308369Y132154D01*
X308434Y132061D01*
X308496Y131966D01*
X308554Y131869D01*
X308609Y131770D01*
X308660Y131669D01*
X308708Y131566D01*
X308753Y131462D01*
X308793Y131356D01*
X308830Y131249D01*
X308863Y131141D01*
X308893Y131031D01*
X308918Y130921D01*
X308940Y130810D01*
X308957Y130698D01*
X308971Y130585D01*
X308981Y130472D01*
X308987Y130359D01*
X308989Y130246D01*
X308989Y125054D01*
X308987Y124941D01*
X308981Y124828D01*
X308971Y124715D01*
X308957Y124602D01*
X308940Y124490D01*
X308918Y124379D01*
X308893Y124269D01*
X308863Y124159D01*
X308830Y124051D01*
X308793Y123944D01*
X308753Y123838D01*
X308708Y123734D01*
X308660Y123631D01*
X308609Y123530D01*
X308554Y123431D01*
X308496Y123334D01*
X308434Y123239D01*
X308369Y123146D01*
X308301Y123056D01*
X308230Y122968D01*
X308155Y122882D01*
X308078Y122799D01*
X307998Y122719D01*
X307915Y122642D01*
X307829Y122567D01*
X307741Y122496D01*
X307651Y122428D01*
X307558Y122363D01*
X307463Y122301D01*
X307366Y122243D01*
X307267Y122188D01*
X307166Y122137D01*
X307063Y122089D01*
X306959Y122044D01*
X306853Y122004D01*
X306746Y121967D01*
X306638Y121934D01*
X306528Y121904D01*
X306418Y121879D01*
X306307Y121857D01*
X306195Y121840D01*
X306082Y121826D01*
X305969Y121816D01*
X305856Y121810D01*
X305743Y121808D01*
X302497Y121808D01*
X317878Y133492D02*
X317985Y133490D01*
X318091Y133484D01*
X318197Y133474D01*
X318303Y133461D01*
X318409Y133443D01*
X318513Y133422D01*
X318617Y133397D01*
X318720Y133368D01*
X318821Y133336D01*
X318921Y133299D01*
X319020Y133259D01*
X319118Y133216D01*
X319214Y133169D01*
X319308Y133118D01*
X319400Y133064D01*
X319490Y133007D01*
X319578Y132947D01*
X319663Y132883D01*
X319746Y132816D01*
X319827Y132746D01*
X319905Y132674D01*
X319981Y132598D01*
X320053Y132520D01*
X320123Y132439D01*
X320190Y132356D01*
X320254Y132271D01*
X320314Y132183D01*
X320371Y132093D01*
X320425Y132001D01*
X320476Y131907D01*
X320523Y131811D01*
X320566Y131713D01*
X320606Y131614D01*
X320643Y131514D01*
X320675Y131413D01*
X320704Y131310D01*
X320729Y131206D01*
X320750Y131102D01*
X320768Y130996D01*
X320781Y130890D01*
X320791Y130784D01*
X320797Y130678D01*
X320799Y130571D01*
X317878Y133492D02*
X317757Y133490D01*
X317636Y133484D01*
X317516Y133474D01*
X317395Y133461D01*
X317276Y133443D01*
X317156Y133422D01*
X317038Y133397D01*
X316921Y133368D01*
X316804Y133335D01*
X316689Y133299D01*
X316575Y133258D01*
X316462Y133215D01*
X316350Y133167D01*
X316241Y133116D01*
X316133Y133061D01*
X316026Y133003D01*
X315922Y132942D01*
X315820Y132877D01*
X315720Y132809D01*
X315622Y132738D01*
X315526Y132664D01*
X315433Y132587D01*
X315343Y132506D01*
X315255Y132423D01*
X315170Y132337D01*
X315087Y132248D01*
X315008Y132157D01*
X314931Y132063D01*
X314858Y131967D01*
X314788Y131869D01*
X314721Y131768D01*
X314657Y131665D01*
X314597Y131560D01*
X314540Y131453D01*
X314486Y131345D01*
X314436Y131235D01*
X314390Y131123D01*
X314347Y131010D01*
X314308Y130895D01*
X319826Y128299D02*
X319905Y128376D01*
X319981Y128457D01*
X320054Y128540D01*
X320124Y128625D01*
X320191Y128713D01*
X320255Y128803D01*
X320315Y128895D01*
X320372Y128990D01*
X320426Y129086D01*
X320477Y129184D01*
X320524Y129284D01*
X320568Y129386D01*
X320608Y129489D01*
X320644Y129593D01*
X320676Y129699D01*
X320705Y129805D01*
X320730Y129913D01*
X320752Y130021D01*
X320769Y130131D01*
X320783Y130240D01*
X320792Y130350D01*
X320798Y130461D01*
X320800Y130571D01*
X319826Y128299D02*
X314308Y121808D01*
X320799Y121808D01*
X201108Y127508D02*
X201108Y139192D01*
X204354Y139192D01*
X204467Y139190D01*
X204580Y139184D01*
X204693Y139174D01*
X204806Y139160D01*
X204918Y139143D01*
X205029Y139121D01*
X205139Y139096D01*
X205249Y139066D01*
X205357Y139033D01*
X205464Y138996D01*
X205570Y138956D01*
X205674Y138911D01*
X205777Y138863D01*
X205878Y138812D01*
X205977Y138757D01*
X206074Y138699D01*
X206169Y138637D01*
X206262Y138572D01*
X206352Y138504D01*
X206440Y138433D01*
X206526Y138358D01*
X206609Y138281D01*
X206689Y138201D01*
X206766Y138118D01*
X206841Y138032D01*
X206912Y137944D01*
X206980Y137854D01*
X207045Y137761D01*
X207107Y137666D01*
X207165Y137569D01*
X207220Y137470D01*
X207271Y137369D01*
X207319Y137266D01*
X207364Y137162D01*
X207404Y137056D01*
X207441Y136949D01*
X207474Y136841D01*
X207504Y136731D01*
X207529Y136621D01*
X207551Y136510D01*
X207568Y136398D01*
X207582Y136285D01*
X207592Y136172D01*
X207598Y136059D01*
X207600Y135946D01*
X207598Y135833D01*
X207592Y135720D01*
X207582Y135607D01*
X207568Y135494D01*
X207551Y135382D01*
X207529Y135271D01*
X207504Y135161D01*
X207474Y135051D01*
X207441Y134943D01*
X207404Y134836D01*
X207364Y134730D01*
X207319Y134626D01*
X207271Y134523D01*
X207220Y134422D01*
X207165Y134323D01*
X207107Y134226D01*
X207045Y134131D01*
X206980Y134038D01*
X206912Y133948D01*
X206841Y133860D01*
X206766Y133774D01*
X206689Y133691D01*
X206609Y133611D01*
X206526Y133534D01*
X206440Y133459D01*
X206352Y133388D01*
X206262Y133320D01*
X206169Y133255D01*
X206074Y133193D01*
X205977Y133135D01*
X205878Y133080D01*
X205777Y133029D01*
X205674Y132981D01*
X205570Y132936D01*
X205464Y132896D01*
X205357Y132859D01*
X205249Y132826D01*
X205139Y132796D01*
X205029Y132771D01*
X204918Y132749D01*
X204806Y132732D01*
X204693Y132718D01*
X204580Y132708D01*
X204467Y132702D01*
X204354Y132700D01*
X204354Y132701D02*
X201108Y132701D01*
X205003Y132701D02*
X207599Y127508D01*
X212464Y136596D02*
X215710Y139192D01*
X215710Y127508D01*
X218955Y127508D02*
X212464Y127508D01*
D10*
X133300Y225100D02*
X133300Y250500D01*
X133300Y225100D02*
X209500Y225100D01*
X209500Y250500D01*
X133300Y250500D01*
D11*
X159208Y252955D02*
X159208Y262692D01*
X159208Y252955D02*
X159210Y252868D01*
X159216Y252780D01*
X159226Y252694D01*
X159239Y252607D01*
X159257Y252522D01*
X159278Y252437D01*
X159303Y252353D01*
X159332Y252271D01*
X159365Y252190D01*
X159401Y252110D01*
X159440Y252032D01*
X159484Y251956D01*
X159530Y251882D01*
X159580Y251811D01*
X159633Y251741D01*
X159689Y251674D01*
X159748Y251610D01*
X159810Y251548D01*
X159874Y251489D01*
X159941Y251433D01*
X160011Y251380D01*
X160082Y251330D01*
X160156Y251284D01*
X160232Y251240D01*
X160310Y251201D01*
X160390Y251165D01*
X160471Y251132D01*
X160553Y251103D01*
X160637Y251078D01*
X160722Y251057D01*
X160807Y251039D01*
X160894Y251026D01*
X160980Y251016D01*
X161068Y251010D01*
X161155Y251008D01*
X165267Y261394D02*
X165267Y262692D01*
X171758Y262692D01*
X168513Y251008D01*
X176697Y254254D02*
X176699Y254367D01*
X176705Y254480D01*
X176715Y254593D01*
X176729Y254706D01*
X176746Y254818D01*
X176768Y254929D01*
X176793Y255039D01*
X176823Y255149D01*
X176856Y255257D01*
X176893Y255364D01*
X176933Y255470D01*
X176978Y255574D01*
X177026Y255677D01*
X177077Y255778D01*
X177132Y255877D01*
X177190Y255974D01*
X177252Y256069D01*
X177317Y256162D01*
X177385Y256252D01*
X177456Y256340D01*
X177531Y256426D01*
X177608Y256509D01*
X177688Y256589D01*
X177771Y256666D01*
X177857Y256741D01*
X177945Y256812D01*
X178035Y256880D01*
X178128Y256945D01*
X178223Y257007D01*
X178320Y257065D01*
X178419Y257120D01*
X178520Y257171D01*
X178623Y257219D01*
X178727Y257264D01*
X178833Y257304D01*
X178940Y257341D01*
X179048Y257374D01*
X179158Y257404D01*
X179268Y257429D01*
X179379Y257451D01*
X179491Y257468D01*
X179604Y257482D01*
X179717Y257492D01*
X179830Y257498D01*
X179943Y257500D01*
X180056Y257498D01*
X180169Y257492D01*
X180282Y257482D01*
X180395Y257468D01*
X180507Y257451D01*
X180618Y257429D01*
X180728Y257404D01*
X180838Y257374D01*
X180946Y257341D01*
X181053Y257304D01*
X181159Y257264D01*
X181263Y257219D01*
X181366Y257171D01*
X181467Y257120D01*
X181566Y257065D01*
X181663Y257007D01*
X181758Y256945D01*
X181851Y256880D01*
X181941Y256812D01*
X182029Y256741D01*
X182115Y256666D01*
X182198Y256589D01*
X182278Y256509D01*
X182355Y256426D01*
X182430Y256340D01*
X182501Y256252D01*
X182569Y256162D01*
X182634Y256069D01*
X182696Y255974D01*
X182754Y255877D01*
X182809Y255778D01*
X182860Y255677D01*
X182908Y255574D01*
X182953Y255470D01*
X182993Y255364D01*
X183030Y255257D01*
X183063Y255149D01*
X183093Y255039D01*
X183118Y254929D01*
X183140Y254818D01*
X183157Y254706D01*
X183171Y254593D01*
X183181Y254480D01*
X183187Y254367D01*
X183189Y254254D01*
X183187Y254141D01*
X183181Y254028D01*
X183171Y253915D01*
X183157Y253802D01*
X183140Y253690D01*
X183118Y253579D01*
X183093Y253469D01*
X183063Y253359D01*
X183030Y253251D01*
X182993Y253144D01*
X182953Y253038D01*
X182908Y252934D01*
X182860Y252831D01*
X182809Y252730D01*
X182754Y252631D01*
X182696Y252534D01*
X182634Y252439D01*
X182569Y252346D01*
X182501Y252256D01*
X182430Y252168D01*
X182355Y252082D01*
X182278Y251999D01*
X182198Y251919D01*
X182115Y251842D01*
X182029Y251767D01*
X181941Y251696D01*
X181851Y251628D01*
X181758Y251563D01*
X181663Y251501D01*
X181566Y251443D01*
X181467Y251388D01*
X181366Y251337D01*
X181263Y251289D01*
X181159Y251244D01*
X181053Y251204D01*
X180946Y251167D01*
X180838Y251134D01*
X180728Y251104D01*
X180618Y251079D01*
X180507Y251057D01*
X180395Y251040D01*
X180282Y251026D01*
X180169Y251016D01*
X180056Y251010D01*
X179943Y251008D01*
X179830Y251010D01*
X179717Y251016D01*
X179604Y251026D01*
X179491Y251040D01*
X179379Y251057D01*
X179268Y251079D01*
X179158Y251104D01*
X179048Y251134D01*
X178940Y251167D01*
X178833Y251204D01*
X178727Y251244D01*
X178623Y251289D01*
X178520Y251337D01*
X178419Y251388D01*
X178320Y251443D01*
X178223Y251501D01*
X178128Y251563D01*
X178035Y251628D01*
X177945Y251696D01*
X177857Y251767D01*
X177771Y251842D01*
X177688Y251919D01*
X177608Y251999D01*
X177531Y252082D01*
X177456Y252168D01*
X177385Y252256D01*
X177317Y252346D01*
X177252Y252439D01*
X177190Y252534D01*
X177132Y252631D01*
X177077Y252730D01*
X177026Y252831D01*
X176978Y252934D01*
X176933Y253038D01*
X176893Y253144D01*
X176856Y253251D01*
X176823Y253359D01*
X176793Y253469D01*
X176768Y253579D01*
X176746Y253690D01*
X176729Y253802D01*
X176715Y253915D01*
X176705Y254028D01*
X176699Y254141D01*
X176697Y254254D01*
X177347Y260096D02*
X177349Y260197D01*
X177355Y260297D01*
X177365Y260397D01*
X177378Y260497D01*
X177396Y260596D01*
X177417Y260695D01*
X177442Y260792D01*
X177471Y260889D01*
X177504Y260984D01*
X177540Y261078D01*
X177580Y261170D01*
X177623Y261261D01*
X177670Y261350D01*
X177720Y261437D01*
X177774Y261523D01*
X177831Y261606D01*
X177891Y261686D01*
X177954Y261765D01*
X178021Y261841D01*
X178090Y261914D01*
X178162Y261984D01*
X178236Y262052D01*
X178313Y262117D01*
X178393Y262178D01*
X178475Y262237D01*
X178559Y262292D01*
X178645Y262344D01*
X178733Y262393D01*
X178823Y262438D01*
X178915Y262480D01*
X179008Y262518D01*
X179103Y262552D01*
X179198Y262583D01*
X179295Y262610D01*
X179393Y262633D01*
X179492Y262653D01*
X179592Y262668D01*
X179692Y262680D01*
X179792Y262688D01*
X179893Y262692D01*
X179993Y262692D01*
X180094Y262688D01*
X180194Y262680D01*
X180294Y262668D01*
X180394Y262653D01*
X180493Y262633D01*
X180591Y262610D01*
X180688Y262583D01*
X180783Y262552D01*
X180878Y262518D01*
X180971Y262480D01*
X181063Y262438D01*
X181153Y262393D01*
X181241Y262344D01*
X181327Y262292D01*
X181411Y262237D01*
X181493Y262178D01*
X181573Y262117D01*
X181650Y262052D01*
X181724Y261984D01*
X181796Y261914D01*
X181865Y261841D01*
X181932Y261765D01*
X181995Y261686D01*
X182055Y261606D01*
X182112Y261523D01*
X182166Y261437D01*
X182216Y261350D01*
X182263Y261261D01*
X182306Y261170D01*
X182346Y261078D01*
X182382Y260984D01*
X182415Y260889D01*
X182444Y260792D01*
X182469Y260695D01*
X182490Y260596D01*
X182508Y260497D01*
X182521Y260397D01*
X182531Y260297D01*
X182537Y260197D01*
X182539Y260096D01*
X182537Y259995D01*
X182531Y259895D01*
X182521Y259795D01*
X182508Y259695D01*
X182490Y259596D01*
X182469Y259497D01*
X182444Y259400D01*
X182415Y259303D01*
X182382Y259208D01*
X182346Y259114D01*
X182306Y259022D01*
X182263Y258931D01*
X182216Y258842D01*
X182166Y258755D01*
X182112Y258669D01*
X182055Y258586D01*
X181995Y258506D01*
X181932Y258427D01*
X181865Y258351D01*
X181796Y258278D01*
X181724Y258208D01*
X181650Y258140D01*
X181573Y258075D01*
X181493Y258014D01*
X181411Y257955D01*
X181327Y257900D01*
X181241Y257848D01*
X181153Y257799D01*
X181063Y257754D01*
X180971Y257712D01*
X180878Y257674D01*
X180783Y257640D01*
X180688Y257609D01*
X180591Y257582D01*
X180493Y257559D01*
X180394Y257539D01*
X180294Y257524D01*
X180194Y257512D01*
X180094Y257504D01*
X179993Y257500D01*
X179893Y257500D01*
X179792Y257504D01*
X179692Y257512D01*
X179592Y257524D01*
X179492Y257539D01*
X179393Y257559D01*
X179295Y257582D01*
X179198Y257609D01*
X179103Y257640D01*
X179008Y257674D01*
X178915Y257712D01*
X178823Y257754D01*
X178733Y257799D01*
X178645Y257848D01*
X178559Y257900D01*
X178475Y257955D01*
X178393Y258014D01*
X178313Y258075D01*
X178236Y258140D01*
X178162Y258208D01*
X178090Y258278D01*
X178021Y258351D01*
X177954Y258427D01*
X177891Y258506D01*
X177831Y258586D01*
X177774Y258669D01*
X177720Y258755D01*
X177670Y258842D01*
X177623Y258931D01*
X177580Y259022D01*
X177540Y259114D01*
X177504Y259208D01*
X177471Y259303D01*
X177442Y259400D01*
X177417Y259497D01*
X177396Y259596D01*
X177378Y259695D01*
X177365Y259795D01*
X177355Y259895D01*
X177349Y259995D01*
X177347Y260096D01*
D10*
X134300Y247800D02*
X134302Y247889D01*
X134308Y247978D01*
X134318Y248067D01*
X134332Y248155D01*
X134349Y248242D01*
X134371Y248328D01*
X134397Y248414D01*
X134426Y248498D01*
X134459Y248581D01*
X134495Y248662D01*
X134536Y248742D01*
X134579Y248819D01*
X134626Y248895D01*
X134677Y248968D01*
X134730Y249039D01*
X134787Y249108D01*
X134847Y249174D01*
X134910Y249238D01*
X134975Y249298D01*
X135043Y249356D01*
X135114Y249410D01*
X135187Y249461D01*
X135262Y249509D01*
X135339Y249554D01*
X135418Y249595D01*
X135499Y249632D01*
X135581Y249666D01*
X135665Y249697D01*
X135750Y249723D01*
X135836Y249746D01*
X135923Y249764D01*
X136011Y249779D01*
X136100Y249790D01*
X136189Y249797D01*
X136278Y249800D01*
X136367Y249799D01*
X136456Y249794D01*
X136544Y249785D01*
X136633Y249772D01*
X136720Y249755D01*
X136807Y249735D01*
X136893Y249710D01*
X136977Y249682D01*
X137060Y249650D01*
X137142Y249614D01*
X137222Y249575D01*
X137300Y249532D01*
X137376Y249486D01*
X137450Y249436D01*
X137522Y249383D01*
X137591Y249327D01*
X137658Y249268D01*
X137722Y249206D01*
X137783Y249142D01*
X137842Y249074D01*
X137897Y249004D01*
X137949Y248932D01*
X137998Y248857D01*
X138043Y248781D01*
X138085Y248702D01*
X138123Y248622D01*
X138158Y248540D01*
X138189Y248456D01*
X138217Y248371D01*
X138240Y248285D01*
X138260Y248198D01*
X138276Y248111D01*
X138288Y248022D01*
X138296Y247934D01*
X138300Y247845D01*
X138300Y247755D01*
X138296Y247666D01*
X138288Y247578D01*
X138276Y247489D01*
X138260Y247402D01*
X138240Y247315D01*
X138217Y247229D01*
X138189Y247144D01*
X138158Y247060D01*
X138123Y246978D01*
X138085Y246898D01*
X138043Y246819D01*
X137998Y246743D01*
X137949Y246668D01*
X137897Y246596D01*
X137842Y246526D01*
X137783Y246458D01*
X137722Y246394D01*
X137658Y246332D01*
X137591Y246273D01*
X137522Y246217D01*
X137450Y246164D01*
X137376Y246114D01*
X137300Y246068D01*
X137222Y246025D01*
X137142Y245986D01*
X137060Y245950D01*
X136977Y245918D01*
X136893Y245890D01*
X136807Y245865D01*
X136720Y245845D01*
X136633Y245828D01*
X136544Y245815D01*
X136456Y245806D01*
X136367Y245801D01*
X136278Y245800D01*
X136189Y245803D01*
X136100Y245810D01*
X136011Y245821D01*
X135923Y245836D01*
X135836Y245854D01*
X135750Y245877D01*
X135665Y245903D01*
X135581Y245934D01*
X135499Y245968D01*
X135418Y246005D01*
X135339Y246046D01*
X135262Y246091D01*
X135187Y246139D01*
X135114Y246190D01*
X135043Y246244D01*
X134975Y246302D01*
X134910Y246362D01*
X134847Y246426D01*
X134787Y246492D01*
X134730Y246561D01*
X134677Y246632D01*
X134626Y246705D01*
X134579Y246781D01*
X134536Y246858D01*
X134495Y246938D01*
X134459Y247019D01*
X134426Y247102D01*
X134397Y247186D01*
X134371Y247272D01*
X134349Y247358D01*
X134332Y247445D01*
X134318Y247533D01*
X134308Y247622D01*
X134302Y247711D01*
X134300Y247800D01*
D15*
X125492Y173970D02*
X75708Y173970D01*
X75708Y196830D01*
X125492Y196830D01*
X125492Y173970D01*
D16*
X42802Y162794D02*
X41334Y162794D01*
X41260Y162796D01*
X41185Y162802D01*
X41112Y162811D01*
X41038Y162824D01*
X40966Y162841D01*
X40895Y162861D01*
X40824Y162885D01*
X40755Y162913D01*
X40688Y162944D01*
X40622Y162978D01*
X40557Y163016D01*
X40495Y163057D01*
X40435Y163101D01*
X40378Y163148D01*
X40323Y163198D01*
X40270Y163251D01*
X40220Y163306D01*
X40173Y163363D01*
X40129Y163423D01*
X40088Y163485D01*
X40050Y163550D01*
X40016Y163616D01*
X39985Y163683D01*
X39957Y163752D01*
X39933Y163823D01*
X39913Y163894D01*
X39896Y163966D01*
X39883Y164040D01*
X39874Y164113D01*
X39868Y164188D01*
X39866Y164262D01*
X39867Y164262D02*
X39867Y167930D01*
X39866Y167930D02*
X39868Y168004D01*
X39874Y168079D01*
X39883Y168152D01*
X39896Y168226D01*
X39913Y168298D01*
X39933Y168369D01*
X39957Y168440D01*
X39985Y168509D01*
X40016Y168576D01*
X40050Y168642D01*
X40088Y168707D01*
X40129Y168769D01*
X40173Y168829D01*
X40220Y168886D01*
X40270Y168941D01*
X40323Y168994D01*
X40378Y169044D01*
X40435Y169091D01*
X40495Y169135D01*
X40557Y169176D01*
X40622Y169214D01*
X40687Y169248D01*
X40755Y169279D01*
X40824Y169307D01*
X40895Y169331D01*
X40966Y169351D01*
X41038Y169368D01*
X41112Y169381D01*
X41185Y169390D01*
X41260Y169396D01*
X41334Y169398D01*
X42802Y169398D01*
X45998Y167930D02*
X47833Y169398D01*
X47833Y162794D01*
X49667Y162794D02*
X45998Y162794D01*
X55331Y169398D02*
X55410Y169396D01*
X55488Y169391D01*
X55566Y169381D01*
X55643Y169368D01*
X55720Y169351D01*
X55796Y169331D01*
X55871Y169307D01*
X55945Y169280D01*
X56017Y169249D01*
X56088Y169214D01*
X56157Y169177D01*
X56224Y169136D01*
X56289Y169092D01*
X56352Y169045D01*
X56412Y168995D01*
X56470Y168942D01*
X56526Y168886D01*
X56579Y168828D01*
X56629Y168768D01*
X56676Y168705D01*
X56720Y168640D01*
X56761Y168573D01*
X56798Y168504D01*
X56833Y168433D01*
X56864Y168361D01*
X56891Y168287D01*
X56915Y168212D01*
X56935Y168136D01*
X56952Y168059D01*
X56965Y167982D01*
X56975Y167904D01*
X56980Y167826D01*
X56982Y167747D01*
X55331Y169398D02*
X55242Y169396D01*
X55153Y169391D01*
X55065Y169381D01*
X54977Y169368D01*
X54890Y169352D01*
X54803Y169331D01*
X54718Y169307D01*
X54633Y169280D01*
X54550Y169249D01*
X54468Y169214D01*
X54387Y169176D01*
X54308Y169135D01*
X54232Y169091D01*
X54156Y169043D01*
X54083Y168992D01*
X54013Y168939D01*
X53944Y168882D01*
X53878Y168822D01*
X53815Y168760D01*
X53754Y168695D01*
X53696Y168628D01*
X53641Y168558D01*
X53588Y168486D01*
X53539Y168412D01*
X53493Y168336D01*
X53451Y168258D01*
X53411Y168178D01*
X53375Y168097D01*
X53342Y168014D01*
X53313Y167930D01*
X56432Y166463D02*
X56488Y166519D01*
X56542Y166578D01*
X56593Y166639D01*
X56642Y166703D01*
X56687Y166768D01*
X56730Y166836D01*
X56769Y166905D01*
X56806Y166976D01*
X56839Y167049D01*
X56868Y167123D01*
X56895Y167198D01*
X56918Y167274D01*
X56937Y167352D01*
X56953Y167430D01*
X56966Y167508D01*
X56975Y167588D01*
X56980Y167667D01*
X56982Y167747D01*
X56432Y166463D02*
X53313Y162794D01*
X56982Y162794D01*
X60629Y166096D02*
X60631Y166241D01*
X60637Y166386D01*
X60646Y166531D01*
X60660Y166676D01*
X60677Y166820D01*
X60699Y166963D01*
X60724Y167107D01*
X60753Y167249D01*
X60785Y167390D01*
X60822Y167531D01*
X60862Y167670D01*
X60906Y167809D01*
X60953Y167946D01*
X61004Y168082D01*
X61059Y168216D01*
X61117Y168349D01*
X61179Y168481D01*
X61178Y168481D02*
X61204Y168550D01*
X61233Y168617D01*
X61266Y168683D01*
X61302Y168746D01*
X61342Y168808D01*
X61385Y168867D01*
X61431Y168924D01*
X61480Y168978D01*
X61532Y169030D01*
X61587Y169079D01*
X61644Y169124D01*
X61704Y169167D01*
X61766Y169206D01*
X61829Y169242D01*
X61895Y169275D01*
X61962Y169303D01*
X62031Y169329D01*
X62101Y169350D01*
X62172Y169368D01*
X62244Y169381D01*
X62317Y169391D01*
X62390Y169397D01*
X62463Y169399D01*
X62463Y169398D02*
X62536Y169396D01*
X62609Y169390D01*
X62682Y169380D01*
X62754Y169367D01*
X62825Y169349D01*
X62895Y169328D01*
X62963Y169302D01*
X63031Y169274D01*
X63096Y169241D01*
X63160Y169205D01*
X63222Y169166D01*
X63281Y169124D01*
X63338Y169078D01*
X63393Y169029D01*
X63445Y168978D01*
X63494Y168923D01*
X63540Y168866D01*
X63583Y168807D01*
X63623Y168746D01*
X63659Y168682D01*
X63692Y168617D01*
X63721Y168550D01*
X63747Y168481D01*
X63809Y168349D01*
X63867Y168216D01*
X63922Y168082D01*
X63973Y167946D01*
X64020Y167809D01*
X64064Y167670D01*
X64104Y167531D01*
X64141Y167390D01*
X64173Y167249D01*
X64202Y167107D01*
X64227Y166964D01*
X64249Y166820D01*
X64266Y166676D01*
X64280Y166531D01*
X64289Y166386D01*
X64295Y166241D01*
X64297Y166096D01*
X60629Y166096D02*
X60631Y165951D01*
X60637Y165806D01*
X60646Y165661D01*
X60660Y165516D01*
X60677Y165372D01*
X60699Y165229D01*
X60724Y165086D01*
X60752Y164943D01*
X60785Y164802D01*
X60822Y164661D01*
X60862Y164522D01*
X60906Y164383D01*
X60953Y164246D01*
X61004Y164110D01*
X61059Y163976D01*
X61117Y163843D01*
X61179Y163711D01*
X61178Y163712D02*
X61204Y163643D01*
X61233Y163576D01*
X61266Y163510D01*
X61302Y163447D01*
X61342Y163385D01*
X61385Y163326D01*
X61431Y163269D01*
X61480Y163215D01*
X61532Y163163D01*
X61587Y163114D01*
X61644Y163069D01*
X61704Y163026D01*
X61766Y162987D01*
X61829Y162951D01*
X61895Y162918D01*
X61962Y162890D01*
X62031Y162864D01*
X62101Y162843D01*
X62172Y162825D01*
X62244Y162812D01*
X62317Y162802D01*
X62390Y162796D01*
X62463Y162794D01*
X63747Y163711D02*
X63809Y163843D01*
X63867Y163976D01*
X63922Y164110D01*
X63973Y164246D01*
X64020Y164383D01*
X64064Y164522D01*
X64104Y164661D01*
X64141Y164802D01*
X64173Y164943D01*
X64202Y165085D01*
X64227Y165228D01*
X64249Y165372D01*
X64266Y165516D01*
X64280Y165661D01*
X64289Y165806D01*
X64295Y165951D01*
X64297Y166096D01*
X63747Y163711D02*
X63721Y163642D01*
X63692Y163575D01*
X63659Y163510D01*
X63623Y163446D01*
X63583Y163385D01*
X63540Y163326D01*
X63494Y163269D01*
X63445Y163214D01*
X63393Y163163D01*
X63338Y163114D01*
X63281Y163068D01*
X63222Y163026D01*
X63160Y162987D01*
X63096Y162951D01*
X63031Y162918D01*
X62963Y162890D01*
X62895Y162864D01*
X62825Y162843D01*
X62753Y162825D01*
X62682Y162812D01*
X62609Y162802D01*
X62536Y162796D01*
X62463Y162794D01*
X60995Y164262D02*
X63930Y167930D01*
X67944Y166463D02*
X70145Y166463D01*
X70219Y166461D01*
X70294Y166455D01*
X70367Y166446D01*
X70441Y166433D01*
X70513Y166416D01*
X70584Y166396D01*
X70655Y166372D01*
X70724Y166344D01*
X70791Y166313D01*
X70857Y166279D01*
X70922Y166241D01*
X70984Y166200D01*
X71044Y166156D01*
X71101Y166109D01*
X71156Y166059D01*
X71209Y166006D01*
X71259Y165951D01*
X71306Y165894D01*
X71350Y165834D01*
X71391Y165772D01*
X71429Y165707D01*
X71463Y165641D01*
X71494Y165574D01*
X71522Y165505D01*
X71546Y165434D01*
X71566Y165363D01*
X71583Y165291D01*
X71596Y165217D01*
X71605Y165144D01*
X71611Y165069D01*
X71613Y164995D01*
X71613Y164628D01*
X71612Y164628D02*
X71610Y164543D01*
X71604Y164459D01*
X71594Y164375D01*
X71581Y164291D01*
X71563Y164208D01*
X71542Y164126D01*
X71517Y164045D01*
X71488Y163965D01*
X71456Y163887D01*
X71420Y163811D01*
X71380Y163736D01*
X71337Y163663D01*
X71291Y163592D01*
X71242Y163523D01*
X71189Y163456D01*
X71133Y163392D01*
X71075Y163331D01*
X71014Y163273D01*
X70950Y163217D01*
X70883Y163164D01*
X70814Y163115D01*
X70743Y163069D01*
X70670Y163026D01*
X70595Y162986D01*
X70519Y162950D01*
X70441Y162918D01*
X70361Y162889D01*
X70280Y162864D01*
X70198Y162843D01*
X70115Y162825D01*
X70031Y162812D01*
X69947Y162802D01*
X69863Y162796D01*
X69778Y162794D01*
X69693Y162796D01*
X69609Y162802D01*
X69525Y162812D01*
X69441Y162825D01*
X69358Y162843D01*
X69276Y162864D01*
X69195Y162889D01*
X69115Y162918D01*
X69037Y162950D01*
X68961Y162986D01*
X68886Y163026D01*
X68813Y163069D01*
X68742Y163115D01*
X68673Y163164D01*
X68606Y163217D01*
X68542Y163273D01*
X68481Y163331D01*
X68423Y163392D01*
X68367Y163456D01*
X68314Y163523D01*
X68265Y163592D01*
X68219Y163663D01*
X68176Y163736D01*
X68136Y163811D01*
X68100Y163887D01*
X68068Y163965D01*
X68039Y164045D01*
X68014Y164126D01*
X67993Y164208D01*
X67975Y164291D01*
X67962Y164375D01*
X67952Y164459D01*
X67946Y164543D01*
X67944Y164628D01*
X67944Y166463D01*
X67946Y166570D01*
X67952Y166677D01*
X67962Y166784D01*
X67975Y166890D01*
X67993Y166996D01*
X68014Y167101D01*
X68039Y167205D01*
X68068Y167309D01*
X68101Y167411D01*
X68138Y167511D01*
X68178Y167611D01*
X68222Y167709D01*
X68269Y167805D01*
X68320Y167899D01*
X68374Y167992D01*
X68431Y168082D01*
X68492Y168171D01*
X68556Y168257D01*
X68623Y168340D01*
X68693Y168422D01*
X68766Y168500D01*
X68842Y168576D01*
X68920Y168649D01*
X69002Y168719D01*
X69085Y168786D01*
X69171Y168850D01*
X69260Y168911D01*
X69350Y168968D01*
X69443Y169022D01*
X69537Y169073D01*
X69633Y169120D01*
X69731Y169164D01*
X69831Y169204D01*
X69931Y169241D01*
X70033Y169274D01*
X70137Y169303D01*
X70241Y169328D01*
X70346Y169349D01*
X70452Y169367D01*
X70558Y169380D01*
X70665Y169390D01*
X70772Y169396D01*
X70879Y169398D01*
X75380Y165362D02*
X79782Y165362D01*
X84981Y162794D02*
X86449Y162794D01*
X84981Y162794D02*
X84907Y162796D01*
X84832Y162802D01*
X84759Y162811D01*
X84685Y162824D01*
X84613Y162841D01*
X84542Y162861D01*
X84471Y162885D01*
X84402Y162913D01*
X84335Y162944D01*
X84269Y162978D01*
X84204Y163016D01*
X84142Y163057D01*
X84082Y163101D01*
X84025Y163148D01*
X83970Y163198D01*
X83917Y163251D01*
X83867Y163306D01*
X83820Y163363D01*
X83776Y163423D01*
X83735Y163485D01*
X83697Y163550D01*
X83663Y163616D01*
X83632Y163683D01*
X83604Y163752D01*
X83580Y163823D01*
X83560Y163894D01*
X83543Y163966D01*
X83530Y164040D01*
X83521Y164113D01*
X83515Y164188D01*
X83513Y164262D01*
X83514Y164262D02*
X83514Y167930D01*
X83513Y167930D02*
X83515Y168004D01*
X83521Y168079D01*
X83530Y168152D01*
X83543Y168226D01*
X83560Y168298D01*
X83580Y168369D01*
X83604Y168440D01*
X83632Y168509D01*
X83663Y168576D01*
X83697Y168642D01*
X83735Y168707D01*
X83776Y168769D01*
X83820Y168829D01*
X83867Y168886D01*
X83917Y168941D01*
X83970Y168994D01*
X84025Y169044D01*
X84082Y169091D01*
X84142Y169135D01*
X84204Y169176D01*
X84269Y169214D01*
X84334Y169248D01*
X84402Y169279D01*
X84471Y169307D01*
X84542Y169331D01*
X84613Y169351D01*
X84685Y169368D01*
X84759Y169381D01*
X84832Y169390D01*
X84907Y169396D01*
X84981Y169398D01*
X86449Y169398D01*
X89889Y169398D02*
X89889Y164628D01*
X89890Y164628D02*
X89892Y164543D01*
X89898Y164459D01*
X89908Y164375D01*
X89921Y164291D01*
X89939Y164208D01*
X89960Y164126D01*
X89985Y164045D01*
X90014Y163965D01*
X90046Y163887D01*
X90082Y163811D01*
X90122Y163736D01*
X90165Y163663D01*
X90211Y163592D01*
X90260Y163523D01*
X90313Y163456D01*
X90369Y163392D01*
X90427Y163331D01*
X90488Y163273D01*
X90552Y163217D01*
X90619Y163164D01*
X90688Y163115D01*
X90759Y163069D01*
X90832Y163026D01*
X90907Y162986D01*
X90983Y162950D01*
X91061Y162918D01*
X91141Y162889D01*
X91222Y162864D01*
X91304Y162843D01*
X91387Y162825D01*
X91471Y162812D01*
X91555Y162802D01*
X91639Y162796D01*
X91724Y162794D01*
X91809Y162796D01*
X91893Y162802D01*
X91977Y162812D01*
X92061Y162825D01*
X92144Y162843D01*
X92226Y162864D01*
X92307Y162889D01*
X92387Y162918D01*
X92465Y162950D01*
X92541Y162986D01*
X92616Y163026D01*
X92689Y163069D01*
X92760Y163115D01*
X92829Y163164D01*
X92896Y163217D01*
X92960Y163273D01*
X93021Y163331D01*
X93079Y163392D01*
X93135Y163456D01*
X93188Y163523D01*
X93237Y163592D01*
X93283Y163663D01*
X93326Y163736D01*
X93366Y163811D01*
X93402Y163887D01*
X93434Y163965D01*
X93463Y164045D01*
X93488Y164126D01*
X93509Y164208D01*
X93527Y164291D01*
X93540Y164375D01*
X93550Y164459D01*
X93556Y164543D01*
X93558Y164628D01*
X93558Y169398D01*
X99406Y162794D02*
X99480Y162796D01*
X99554Y162802D01*
X99628Y162811D01*
X99701Y162824D01*
X99774Y162841D01*
X99845Y162861D01*
X99916Y162885D01*
X99985Y162913D01*
X100052Y162944D01*
X100118Y162978D01*
X100183Y163016D01*
X100245Y163057D01*
X100305Y163101D01*
X100362Y163148D01*
X100417Y163198D01*
X100470Y163251D01*
X100520Y163306D01*
X100567Y163363D01*
X100611Y163423D01*
X100652Y163485D01*
X100690Y163550D01*
X100724Y163615D01*
X100755Y163683D01*
X100783Y163752D01*
X100807Y163823D01*
X100827Y163894D01*
X100844Y163966D01*
X100857Y164040D01*
X100866Y164113D01*
X100872Y164188D01*
X100874Y164262D01*
X99406Y162794D02*
X99295Y162796D01*
X99184Y162802D01*
X99073Y162812D01*
X98962Y162826D01*
X98853Y162844D01*
X98744Y162866D01*
X98635Y162891D01*
X98528Y162921D01*
X98422Y162954D01*
X98317Y162992D01*
X98214Y163032D01*
X98112Y163077D01*
X98012Y163125D01*
X97913Y163177D01*
X97817Y163232D01*
X97722Y163291D01*
X97630Y163353D01*
X97540Y163419D01*
X97452Y163487D01*
X97367Y163559D01*
X97285Y163634D01*
X97205Y163711D01*
X97387Y167930D02*
X97389Y168004D01*
X97395Y168079D01*
X97404Y168152D01*
X97417Y168226D01*
X97434Y168298D01*
X97454Y168369D01*
X97478Y168440D01*
X97506Y168509D01*
X97537Y168576D01*
X97571Y168642D01*
X97609Y168707D01*
X97650Y168769D01*
X97694Y168829D01*
X97741Y168886D01*
X97791Y168941D01*
X97844Y168994D01*
X97899Y169044D01*
X97956Y169091D01*
X98016Y169135D01*
X98078Y169176D01*
X98143Y169214D01*
X98209Y169248D01*
X98276Y169279D01*
X98345Y169307D01*
X98416Y169331D01*
X98487Y169351D01*
X98559Y169368D01*
X98633Y169381D01*
X98706Y169390D01*
X98781Y169396D01*
X98855Y169398D01*
X98959Y169396D01*
X99063Y169390D01*
X99167Y169380D01*
X99270Y169367D01*
X99373Y169349D01*
X99475Y169327D01*
X99576Y169302D01*
X99676Y169273D01*
X99775Y169240D01*
X99872Y169203D01*
X99968Y169163D01*
X100063Y169119D01*
X100155Y169071D01*
X100246Y169021D01*
X100335Y168966D01*
X100422Y168909D01*
X100506Y168848D01*
X98121Y166645D02*
X98058Y166684D01*
X97998Y166726D01*
X97940Y166771D01*
X97883Y166819D01*
X97830Y166870D01*
X97779Y166923D01*
X97730Y166978D01*
X97685Y167036D01*
X97642Y167096D01*
X97602Y167158D01*
X97566Y167222D01*
X97532Y167288D01*
X97502Y167356D01*
X97475Y167424D01*
X97452Y167494D01*
X97432Y167565D01*
X97416Y167637D01*
X97403Y167710D01*
X97394Y167783D01*
X97389Y167856D01*
X97387Y167930D01*
X100140Y165547D02*
X100203Y165508D01*
X100263Y165466D01*
X100322Y165421D01*
X100378Y165373D01*
X100431Y165322D01*
X100482Y165269D01*
X100531Y165214D01*
X100576Y165156D01*
X100619Y165096D01*
X100659Y165034D01*
X100695Y164970D01*
X100729Y164904D01*
X100759Y164836D01*
X100786Y164768D01*
X100809Y164698D01*
X100829Y164627D01*
X100845Y164555D01*
X100858Y164482D01*
X100867Y164409D01*
X100872Y164336D01*
X100874Y164262D01*
X100139Y165546D02*
X98122Y166646D01*
X105622Y169398D02*
X105622Y162794D01*
X103788Y169398D02*
X107457Y169398D01*
X110616Y167564D02*
X110616Y164628D01*
X110616Y167564D02*
X110618Y167649D01*
X110624Y167733D01*
X110634Y167817D01*
X110647Y167901D01*
X110665Y167984D01*
X110686Y168066D01*
X110711Y168147D01*
X110740Y168227D01*
X110772Y168305D01*
X110808Y168381D01*
X110848Y168456D01*
X110891Y168529D01*
X110937Y168600D01*
X110986Y168669D01*
X111039Y168736D01*
X111095Y168800D01*
X111153Y168861D01*
X111214Y168919D01*
X111278Y168975D01*
X111345Y169028D01*
X111414Y169077D01*
X111485Y169123D01*
X111558Y169166D01*
X111633Y169206D01*
X111709Y169242D01*
X111787Y169274D01*
X111867Y169303D01*
X111948Y169328D01*
X112030Y169349D01*
X112113Y169367D01*
X112197Y169380D01*
X112281Y169390D01*
X112365Y169396D01*
X112450Y169398D01*
X112535Y169396D01*
X112619Y169390D01*
X112703Y169380D01*
X112787Y169367D01*
X112870Y169349D01*
X112952Y169328D01*
X113033Y169303D01*
X113113Y169274D01*
X113191Y169242D01*
X113267Y169206D01*
X113342Y169166D01*
X113415Y169123D01*
X113486Y169077D01*
X113555Y169028D01*
X113622Y168975D01*
X113686Y168919D01*
X113747Y168861D01*
X113805Y168800D01*
X113861Y168736D01*
X113914Y168669D01*
X113963Y168600D01*
X114009Y168529D01*
X114052Y168456D01*
X114092Y168381D01*
X114128Y168305D01*
X114160Y168227D01*
X114189Y168147D01*
X114214Y168066D01*
X114235Y167984D01*
X114253Y167901D01*
X114266Y167817D01*
X114276Y167733D01*
X114282Y167649D01*
X114284Y167564D01*
X114284Y164628D01*
X114282Y164543D01*
X114276Y164459D01*
X114266Y164375D01*
X114253Y164291D01*
X114235Y164208D01*
X114214Y164126D01*
X114189Y164045D01*
X114160Y163965D01*
X114128Y163887D01*
X114092Y163811D01*
X114052Y163736D01*
X114009Y163663D01*
X113963Y163592D01*
X113914Y163523D01*
X113861Y163456D01*
X113805Y163392D01*
X113747Y163331D01*
X113686Y163273D01*
X113622Y163217D01*
X113555Y163164D01*
X113486Y163115D01*
X113415Y163069D01*
X113342Y163026D01*
X113267Y162986D01*
X113191Y162950D01*
X113113Y162918D01*
X113033Y162889D01*
X112952Y162864D01*
X112870Y162843D01*
X112787Y162825D01*
X112703Y162812D01*
X112619Y162802D01*
X112535Y162796D01*
X112450Y162794D01*
X112365Y162796D01*
X112281Y162802D01*
X112197Y162812D01*
X112113Y162825D01*
X112030Y162843D01*
X111948Y162864D01*
X111867Y162889D01*
X111787Y162918D01*
X111709Y162950D01*
X111633Y162986D01*
X111558Y163026D01*
X111485Y163069D01*
X111414Y163115D01*
X111345Y163164D01*
X111278Y163217D01*
X111214Y163273D01*
X111153Y163331D01*
X111095Y163392D01*
X111039Y163456D01*
X110986Y163523D01*
X110937Y163592D01*
X110891Y163663D01*
X110848Y163736D01*
X110808Y163811D01*
X110772Y163887D01*
X110740Y163965D01*
X110711Y164045D01*
X110686Y164126D01*
X110665Y164208D01*
X110647Y164291D01*
X110634Y164375D01*
X110624Y164459D01*
X110618Y164543D01*
X110616Y164628D01*
X118295Y162794D02*
X118295Y169398D01*
X120497Y165729D01*
X122698Y169398D01*
X122698Y162794D01*
D15*
X231908Y195570D02*
X281692Y195570D01*
X231908Y195570D02*
X231908Y218430D01*
X281692Y218430D01*
X281692Y195570D01*
D16*
X199002Y184394D02*
X197534Y184394D01*
X197460Y184396D01*
X197385Y184402D01*
X197312Y184411D01*
X197238Y184424D01*
X197166Y184441D01*
X197095Y184461D01*
X197024Y184485D01*
X196955Y184513D01*
X196888Y184544D01*
X196822Y184578D01*
X196757Y184616D01*
X196695Y184657D01*
X196635Y184701D01*
X196578Y184748D01*
X196523Y184798D01*
X196470Y184851D01*
X196420Y184906D01*
X196373Y184963D01*
X196329Y185023D01*
X196288Y185085D01*
X196250Y185150D01*
X196216Y185216D01*
X196185Y185283D01*
X196157Y185352D01*
X196133Y185423D01*
X196113Y185494D01*
X196096Y185566D01*
X196083Y185640D01*
X196074Y185713D01*
X196068Y185788D01*
X196066Y185862D01*
X196067Y185862D02*
X196067Y189530D01*
X196066Y189530D02*
X196068Y189604D01*
X196074Y189679D01*
X196083Y189752D01*
X196096Y189826D01*
X196113Y189898D01*
X196133Y189969D01*
X196157Y190040D01*
X196185Y190109D01*
X196216Y190176D01*
X196250Y190242D01*
X196288Y190307D01*
X196329Y190369D01*
X196373Y190429D01*
X196420Y190486D01*
X196470Y190541D01*
X196523Y190594D01*
X196578Y190644D01*
X196635Y190691D01*
X196695Y190735D01*
X196757Y190776D01*
X196822Y190814D01*
X196887Y190848D01*
X196955Y190879D01*
X197024Y190907D01*
X197095Y190931D01*
X197166Y190951D01*
X197238Y190968D01*
X197312Y190981D01*
X197385Y190990D01*
X197460Y190996D01*
X197534Y190998D01*
X199002Y190998D01*
X202198Y189530D02*
X204033Y190998D01*
X204033Y184394D01*
X205867Y184394D02*
X202198Y184394D01*
X211531Y190998D02*
X211610Y190996D01*
X211688Y190991D01*
X211766Y190981D01*
X211843Y190968D01*
X211920Y190951D01*
X211996Y190931D01*
X212071Y190907D01*
X212145Y190880D01*
X212217Y190849D01*
X212288Y190814D01*
X212357Y190777D01*
X212424Y190736D01*
X212489Y190692D01*
X212552Y190645D01*
X212612Y190595D01*
X212670Y190542D01*
X212726Y190486D01*
X212779Y190428D01*
X212829Y190368D01*
X212876Y190305D01*
X212920Y190240D01*
X212961Y190173D01*
X212998Y190104D01*
X213033Y190033D01*
X213064Y189961D01*
X213091Y189887D01*
X213115Y189812D01*
X213135Y189736D01*
X213152Y189659D01*
X213165Y189582D01*
X213175Y189504D01*
X213180Y189426D01*
X213182Y189347D01*
X211531Y190998D02*
X211442Y190996D01*
X211353Y190991D01*
X211265Y190981D01*
X211177Y190968D01*
X211090Y190952D01*
X211003Y190931D01*
X210918Y190907D01*
X210833Y190880D01*
X210750Y190849D01*
X210668Y190814D01*
X210587Y190776D01*
X210508Y190735D01*
X210432Y190691D01*
X210356Y190643D01*
X210283Y190592D01*
X210213Y190539D01*
X210144Y190482D01*
X210078Y190422D01*
X210015Y190360D01*
X209954Y190295D01*
X209896Y190228D01*
X209841Y190158D01*
X209788Y190086D01*
X209739Y190012D01*
X209693Y189936D01*
X209651Y189858D01*
X209611Y189778D01*
X209575Y189697D01*
X209542Y189614D01*
X209513Y189530D01*
X212632Y188063D02*
X212688Y188119D01*
X212742Y188178D01*
X212793Y188239D01*
X212842Y188303D01*
X212887Y188368D01*
X212930Y188436D01*
X212969Y188505D01*
X213006Y188576D01*
X213039Y188649D01*
X213068Y188723D01*
X213095Y188798D01*
X213118Y188874D01*
X213137Y188952D01*
X213153Y189030D01*
X213166Y189108D01*
X213175Y189188D01*
X213180Y189267D01*
X213182Y189347D01*
X212632Y188063D02*
X209513Y184394D01*
X213182Y184394D01*
X216829Y187696D02*
X216831Y187841D01*
X216837Y187986D01*
X216846Y188131D01*
X216860Y188276D01*
X216877Y188420D01*
X216899Y188563D01*
X216924Y188707D01*
X216953Y188849D01*
X216985Y188990D01*
X217022Y189131D01*
X217062Y189270D01*
X217106Y189409D01*
X217153Y189546D01*
X217204Y189682D01*
X217259Y189816D01*
X217317Y189949D01*
X217379Y190081D01*
X217378Y190081D02*
X217404Y190150D01*
X217433Y190217D01*
X217466Y190283D01*
X217502Y190346D01*
X217542Y190408D01*
X217585Y190467D01*
X217631Y190524D01*
X217680Y190578D01*
X217732Y190630D01*
X217787Y190679D01*
X217844Y190724D01*
X217904Y190767D01*
X217966Y190806D01*
X218029Y190842D01*
X218095Y190875D01*
X218162Y190903D01*
X218231Y190929D01*
X218301Y190950D01*
X218372Y190968D01*
X218444Y190981D01*
X218517Y190991D01*
X218590Y190997D01*
X218663Y190999D01*
X218663Y190998D02*
X218736Y190996D01*
X218809Y190990D01*
X218882Y190980D01*
X218954Y190967D01*
X219025Y190949D01*
X219095Y190928D01*
X219163Y190902D01*
X219231Y190874D01*
X219296Y190841D01*
X219360Y190805D01*
X219422Y190766D01*
X219481Y190724D01*
X219538Y190678D01*
X219593Y190629D01*
X219645Y190578D01*
X219694Y190523D01*
X219740Y190466D01*
X219783Y190407D01*
X219823Y190346D01*
X219859Y190282D01*
X219892Y190217D01*
X219921Y190150D01*
X219947Y190081D01*
X220009Y189949D01*
X220067Y189816D01*
X220122Y189682D01*
X220173Y189546D01*
X220220Y189409D01*
X220264Y189270D01*
X220304Y189131D01*
X220341Y188990D01*
X220373Y188849D01*
X220402Y188707D01*
X220427Y188564D01*
X220449Y188420D01*
X220466Y188276D01*
X220480Y188131D01*
X220489Y187986D01*
X220495Y187841D01*
X220497Y187696D01*
X216829Y187696D02*
X216831Y187551D01*
X216837Y187406D01*
X216846Y187261D01*
X216860Y187116D01*
X216877Y186972D01*
X216899Y186829D01*
X216924Y186686D01*
X216952Y186543D01*
X216985Y186402D01*
X217022Y186261D01*
X217062Y186122D01*
X217106Y185983D01*
X217153Y185846D01*
X217204Y185710D01*
X217259Y185576D01*
X217317Y185443D01*
X217379Y185311D01*
X217378Y185312D02*
X217404Y185243D01*
X217433Y185176D01*
X217466Y185110D01*
X217502Y185047D01*
X217542Y184985D01*
X217585Y184926D01*
X217631Y184869D01*
X217680Y184815D01*
X217732Y184763D01*
X217787Y184714D01*
X217844Y184669D01*
X217904Y184626D01*
X217966Y184587D01*
X218029Y184551D01*
X218095Y184518D01*
X218162Y184490D01*
X218231Y184464D01*
X218301Y184443D01*
X218372Y184425D01*
X218444Y184412D01*
X218517Y184402D01*
X218590Y184396D01*
X218663Y184394D01*
X219947Y185311D02*
X220009Y185443D01*
X220067Y185576D01*
X220122Y185710D01*
X220173Y185846D01*
X220220Y185983D01*
X220264Y186122D01*
X220304Y186261D01*
X220341Y186402D01*
X220373Y186543D01*
X220402Y186685D01*
X220427Y186828D01*
X220449Y186972D01*
X220466Y187116D01*
X220480Y187261D01*
X220489Y187406D01*
X220495Y187551D01*
X220497Y187696D01*
X219947Y185311D02*
X219921Y185242D01*
X219892Y185175D01*
X219859Y185110D01*
X219823Y185046D01*
X219783Y184985D01*
X219740Y184926D01*
X219694Y184869D01*
X219645Y184814D01*
X219593Y184763D01*
X219538Y184714D01*
X219481Y184668D01*
X219422Y184626D01*
X219360Y184587D01*
X219296Y184551D01*
X219231Y184518D01*
X219163Y184490D01*
X219095Y184464D01*
X219025Y184443D01*
X218953Y184425D01*
X218882Y184412D01*
X218809Y184402D01*
X218736Y184396D01*
X218663Y184394D01*
X217195Y185862D02*
X220130Y189530D01*
X224144Y188063D02*
X226345Y188063D01*
X226419Y188061D01*
X226494Y188055D01*
X226567Y188046D01*
X226641Y188033D01*
X226713Y188016D01*
X226784Y187996D01*
X226855Y187972D01*
X226924Y187944D01*
X226991Y187913D01*
X227057Y187879D01*
X227122Y187841D01*
X227184Y187800D01*
X227244Y187756D01*
X227301Y187709D01*
X227356Y187659D01*
X227409Y187606D01*
X227459Y187551D01*
X227506Y187494D01*
X227550Y187434D01*
X227591Y187372D01*
X227629Y187307D01*
X227663Y187241D01*
X227694Y187174D01*
X227722Y187105D01*
X227746Y187034D01*
X227766Y186963D01*
X227783Y186891D01*
X227796Y186817D01*
X227805Y186744D01*
X227811Y186669D01*
X227813Y186595D01*
X227813Y186228D01*
X227812Y186228D02*
X227810Y186143D01*
X227804Y186059D01*
X227794Y185975D01*
X227781Y185891D01*
X227763Y185808D01*
X227742Y185726D01*
X227717Y185645D01*
X227688Y185565D01*
X227656Y185487D01*
X227620Y185411D01*
X227580Y185336D01*
X227537Y185263D01*
X227491Y185192D01*
X227442Y185123D01*
X227389Y185056D01*
X227333Y184992D01*
X227275Y184931D01*
X227214Y184873D01*
X227150Y184817D01*
X227083Y184764D01*
X227014Y184715D01*
X226943Y184669D01*
X226870Y184626D01*
X226795Y184586D01*
X226719Y184550D01*
X226641Y184518D01*
X226561Y184489D01*
X226480Y184464D01*
X226398Y184443D01*
X226315Y184425D01*
X226231Y184412D01*
X226147Y184402D01*
X226063Y184396D01*
X225978Y184394D01*
X225893Y184396D01*
X225809Y184402D01*
X225725Y184412D01*
X225641Y184425D01*
X225558Y184443D01*
X225476Y184464D01*
X225395Y184489D01*
X225315Y184518D01*
X225237Y184550D01*
X225161Y184586D01*
X225086Y184626D01*
X225013Y184669D01*
X224942Y184715D01*
X224873Y184764D01*
X224806Y184817D01*
X224742Y184873D01*
X224681Y184931D01*
X224623Y184992D01*
X224567Y185056D01*
X224514Y185123D01*
X224465Y185192D01*
X224419Y185263D01*
X224376Y185336D01*
X224336Y185411D01*
X224300Y185487D01*
X224268Y185565D01*
X224239Y185645D01*
X224214Y185726D01*
X224193Y185808D01*
X224175Y185891D01*
X224162Y185975D01*
X224152Y186059D01*
X224146Y186143D01*
X224144Y186228D01*
X224144Y188063D01*
X224146Y188170D01*
X224152Y188277D01*
X224162Y188384D01*
X224175Y188490D01*
X224193Y188596D01*
X224214Y188701D01*
X224239Y188805D01*
X224268Y188909D01*
X224301Y189011D01*
X224338Y189111D01*
X224378Y189211D01*
X224422Y189309D01*
X224469Y189405D01*
X224520Y189499D01*
X224574Y189592D01*
X224631Y189682D01*
X224692Y189771D01*
X224756Y189857D01*
X224823Y189940D01*
X224893Y190022D01*
X224966Y190100D01*
X225042Y190176D01*
X225120Y190249D01*
X225202Y190319D01*
X225285Y190386D01*
X225371Y190450D01*
X225460Y190511D01*
X225550Y190568D01*
X225643Y190622D01*
X225737Y190673D01*
X225833Y190720D01*
X225931Y190764D01*
X226031Y190804D01*
X226131Y190841D01*
X226233Y190874D01*
X226337Y190903D01*
X226441Y190928D01*
X226546Y190949D01*
X226652Y190967D01*
X226758Y190980D01*
X226865Y190990D01*
X226972Y190996D01*
X227079Y190998D01*
X231580Y186962D02*
X235982Y186962D01*
X241181Y184394D02*
X242649Y184394D01*
X241181Y184394D02*
X241107Y184396D01*
X241032Y184402D01*
X240959Y184411D01*
X240885Y184424D01*
X240813Y184441D01*
X240742Y184461D01*
X240671Y184485D01*
X240602Y184513D01*
X240535Y184544D01*
X240469Y184578D01*
X240404Y184616D01*
X240342Y184657D01*
X240282Y184701D01*
X240225Y184748D01*
X240170Y184798D01*
X240117Y184851D01*
X240067Y184906D01*
X240020Y184963D01*
X239976Y185023D01*
X239935Y185085D01*
X239897Y185150D01*
X239863Y185216D01*
X239832Y185283D01*
X239804Y185352D01*
X239780Y185423D01*
X239760Y185494D01*
X239743Y185566D01*
X239730Y185640D01*
X239721Y185713D01*
X239715Y185788D01*
X239713Y185862D01*
X239714Y185862D02*
X239714Y189530D01*
X239713Y189530D02*
X239715Y189604D01*
X239721Y189679D01*
X239730Y189752D01*
X239743Y189826D01*
X239760Y189898D01*
X239780Y189969D01*
X239804Y190040D01*
X239832Y190109D01*
X239863Y190176D01*
X239897Y190242D01*
X239935Y190307D01*
X239976Y190369D01*
X240020Y190429D01*
X240067Y190486D01*
X240117Y190541D01*
X240170Y190594D01*
X240225Y190644D01*
X240282Y190691D01*
X240342Y190735D01*
X240404Y190776D01*
X240469Y190814D01*
X240534Y190848D01*
X240602Y190879D01*
X240671Y190907D01*
X240742Y190931D01*
X240813Y190951D01*
X240885Y190968D01*
X240959Y190981D01*
X241032Y190990D01*
X241107Y190996D01*
X241181Y190998D01*
X242649Y190998D01*
X246089Y190998D02*
X246089Y186228D01*
X246090Y186228D02*
X246092Y186143D01*
X246098Y186059D01*
X246108Y185975D01*
X246121Y185891D01*
X246139Y185808D01*
X246160Y185726D01*
X246185Y185645D01*
X246214Y185565D01*
X246246Y185487D01*
X246282Y185411D01*
X246322Y185336D01*
X246365Y185263D01*
X246411Y185192D01*
X246460Y185123D01*
X246513Y185056D01*
X246569Y184992D01*
X246627Y184931D01*
X246688Y184873D01*
X246752Y184817D01*
X246819Y184764D01*
X246888Y184715D01*
X246959Y184669D01*
X247032Y184626D01*
X247107Y184586D01*
X247183Y184550D01*
X247261Y184518D01*
X247341Y184489D01*
X247422Y184464D01*
X247504Y184443D01*
X247587Y184425D01*
X247671Y184412D01*
X247755Y184402D01*
X247839Y184396D01*
X247924Y184394D01*
X248009Y184396D01*
X248093Y184402D01*
X248177Y184412D01*
X248261Y184425D01*
X248344Y184443D01*
X248426Y184464D01*
X248507Y184489D01*
X248587Y184518D01*
X248665Y184550D01*
X248741Y184586D01*
X248816Y184626D01*
X248889Y184669D01*
X248960Y184715D01*
X249029Y184764D01*
X249096Y184817D01*
X249160Y184873D01*
X249221Y184931D01*
X249279Y184992D01*
X249335Y185056D01*
X249388Y185123D01*
X249437Y185192D01*
X249483Y185263D01*
X249526Y185336D01*
X249566Y185411D01*
X249602Y185487D01*
X249634Y185565D01*
X249663Y185645D01*
X249688Y185726D01*
X249709Y185808D01*
X249727Y185891D01*
X249740Y185975D01*
X249750Y186059D01*
X249756Y186143D01*
X249758Y186228D01*
X249758Y190998D01*
X255606Y184394D02*
X255680Y184396D01*
X255754Y184402D01*
X255828Y184411D01*
X255901Y184424D01*
X255974Y184441D01*
X256045Y184461D01*
X256116Y184485D01*
X256185Y184513D01*
X256252Y184544D01*
X256318Y184578D01*
X256383Y184616D01*
X256445Y184657D01*
X256505Y184701D01*
X256562Y184748D01*
X256617Y184798D01*
X256670Y184851D01*
X256720Y184906D01*
X256767Y184963D01*
X256811Y185023D01*
X256852Y185085D01*
X256890Y185150D01*
X256924Y185215D01*
X256955Y185283D01*
X256983Y185352D01*
X257007Y185423D01*
X257027Y185494D01*
X257044Y185566D01*
X257057Y185640D01*
X257066Y185713D01*
X257072Y185788D01*
X257074Y185862D01*
X255606Y184394D02*
X255495Y184396D01*
X255384Y184402D01*
X255273Y184412D01*
X255162Y184426D01*
X255053Y184444D01*
X254944Y184466D01*
X254835Y184491D01*
X254728Y184521D01*
X254622Y184554D01*
X254517Y184592D01*
X254414Y184632D01*
X254312Y184677D01*
X254212Y184725D01*
X254113Y184777D01*
X254017Y184832D01*
X253922Y184891D01*
X253830Y184953D01*
X253740Y185019D01*
X253652Y185087D01*
X253567Y185159D01*
X253485Y185234D01*
X253405Y185311D01*
X253587Y189530D02*
X253589Y189604D01*
X253595Y189679D01*
X253604Y189752D01*
X253617Y189826D01*
X253634Y189898D01*
X253654Y189969D01*
X253678Y190040D01*
X253706Y190109D01*
X253737Y190176D01*
X253771Y190242D01*
X253809Y190307D01*
X253850Y190369D01*
X253894Y190429D01*
X253941Y190486D01*
X253991Y190541D01*
X254044Y190594D01*
X254099Y190644D01*
X254156Y190691D01*
X254216Y190735D01*
X254278Y190776D01*
X254343Y190814D01*
X254409Y190848D01*
X254476Y190879D01*
X254545Y190907D01*
X254616Y190931D01*
X254687Y190951D01*
X254759Y190968D01*
X254833Y190981D01*
X254906Y190990D01*
X254981Y190996D01*
X255055Y190998D01*
X255159Y190996D01*
X255263Y190990D01*
X255367Y190980D01*
X255470Y190967D01*
X255573Y190949D01*
X255675Y190927D01*
X255776Y190902D01*
X255876Y190873D01*
X255975Y190840D01*
X256072Y190803D01*
X256168Y190763D01*
X256263Y190719D01*
X256355Y190671D01*
X256446Y190621D01*
X256535Y190566D01*
X256622Y190509D01*
X256706Y190448D01*
X254321Y188245D02*
X254258Y188284D01*
X254198Y188326D01*
X254140Y188371D01*
X254083Y188419D01*
X254030Y188470D01*
X253979Y188523D01*
X253930Y188578D01*
X253885Y188636D01*
X253842Y188696D01*
X253802Y188758D01*
X253766Y188822D01*
X253732Y188888D01*
X253702Y188956D01*
X253675Y189024D01*
X253652Y189094D01*
X253632Y189165D01*
X253616Y189237D01*
X253603Y189310D01*
X253594Y189383D01*
X253589Y189456D01*
X253587Y189530D01*
X256340Y187147D02*
X256403Y187108D01*
X256463Y187066D01*
X256522Y187021D01*
X256578Y186973D01*
X256631Y186922D01*
X256682Y186869D01*
X256731Y186814D01*
X256776Y186756D01*
X256819Y186696D01*
X256859Y186634D01*
X256895Y186570D01*
X256929Y186504D01*
X256959Y186436D01*
X256986Y186368D01*
X257009Y186298D01*
X257029Y186227D01*
X257045Y186155D01*
X257058Y186082D01*
X257067Y186009D01*
X257072Y185936D01*
X257074Y185862D01*
X256339Y187146D02*
X254322Y188246D01*
X261822Y190998D02*
X261822Y184394D01*
X259988Y190998D02*
X263657Y190998D01*
X266816Y189164D02*
X266816Y186228D01*
X266816Y189164D02*
X266818Y189249D01*
X266824Y189333D01*
X266834Y189417D01*
X266847Y189501D01*
X266865Y189584D01*
X266886Y189666D01*
X266911Y189747D01*
X266940Y189827D01*
X266972Y189905D01*
X267008Y189981D01*
X267048Y190056D01*
X267091Y190129D01*
X267137Y190200D01*
X267186Y190269D01*
X267239Y190336D01*
X267295Y190400D01*
X267353Y190461D01*
X267414Y190519D01*
X267478Y190575D01*
X267545Y190628D01*
X267614Y190677D01*
X267685Y190723D01*
X267758Y190766D01*
X267833Y190806D01*
X267909Y190842D01*
X267987Y190874D01*
X268067Y190903D01*
X268148Y190928D01*
X268230Y190949D01*
X268313Y190967D01*
X268397Y190980D01*
X268481Y190990D01*
X268565Y190996D01*
X268650Y190998D01*
X268735Y190996D01*
X268819Y190990D01*
X268903Y190980D01*
X268987Y190967D01*
X269070Y190949D01*
X269152Y190928D01*
X269233Y190903D01*
X269313Y190874D01*
X269391Y190842D01*
X269467Y190806D01*
X269542Y190766D01*
X269615Y190723D01*
X269686Y190677D01*
X269755Y190628D01*
X269822Y190575D01*
X269886Y190519D01*
X269947Y190461D01*
X270005Y190400D01*
X270061Y190336D01*
X270114Y190269D01*
X270163Y190200D01*
X270209Y190129D01*
X270252Y190056D01*
X270292Y189981D01*
X270328Y189905D01*
X270360Y189827D01*
X270389Y189747D01*
X270414Y189666D01*
X270435Y189584D01*
X270453Y189501D01*
X270466Y189417D01*
X270476Y189333D01*
X270482Y189249D01*
X270484Y189164D01*
X270484Y186228D01*
X270482Y186143D01*
X270476Y186059D01*
X270466Y185975D01*
X270453Y185891D01*
X270435Y185808D01*
X270414Y185726D01*
X270389Y185645D01*
X270360Y185565D01*
X270328Y185487D01*
X270292Y185411D01*
X270252Y185336D01*
X270209Y185263D01*
X270163Y185192D01*
X270114Y185123D01*
X270061Y185056D01*
X270005Y184992D01*
X269947Y184931D01*
X269886Y184873D01*
X269822Y184817D01*
X269755Y184764D01*
X269686Y184715D01*
X269615Y184669D01*
X269542Y184626D01*
X269467Y184586D01*
X269391Y184550D01*
X269313Y184518D01*
X269233Y184489D01*
X269152Y184464D01*
X269070Y184443D01*
X268987Y184425D01*
X268903Y184412D01*
X268819Y184402D01*
X268735Y184396D01*
X268650Y184394D01*
X268565Y184396D01*
X268481Y184402D01*
X268397Y184412D01*
X268313Y184425D01*
X268230Y184443D01*
X268148Y184464D01*
X268067Y184489D01*
X267987Y184518D01*
X267909Y184550D01*
X267833Y184586D01*
X267758Y184626D01*
X267685Y184669D01*
X267614Y184715D01*
X267545Y184764D01*
X267478Y184817D01*
X267414Y184873D01*
X267353Y184931D01*
X267295Y184992D01*
X267239Y185056D01*
X267186Y185123D01*
X267137Y185192D01*
X267091Y185263D01*
X267048Y185336D01*
X267008Y185411D01*
X266972Y185487D01*
X266940Y185565D01*
X266911Y185645D01*
X266886Y185726D01*
X266865Y185808D01*
X266847Y185891D01*
X266834Y185975D01*
X266824Y186059D01*
X266818Y186143D01*
X266816Y186228D01*
X274495Y184394D02*
X274495Y190998D01*
X276697Y187329D01*
X278898Y190998D01*
X278898Y184394D01*
M02*
